# Blender 3.6.1
# www.blender.org
mtllib Piece2.mtl
o Cube.003
v -0.012882 0.133852 -0.191564
v -0.012929 0.134154 -0.191694
v 0.017101 0.126126 -0.181707
v -0.013485 0.135125 -0.191004
v -0.009039 0.099647 -0.193397
v -0.025315 0.011478 -0.160080
v 0.030201 -0.095129 -0.043026
v -0.062831 -0.011408 -0.103588
v -0.082854 0.032736 -0.079784
v -0.020572 -0.090170 -0.019944
v -0.007538 -0.064855 0.007201
v -0.041025 -0.041397 -0.005707
v 0.025992 0.026102 0.024281
v 0.014347 -0.046468 -0.006960
v -0.019958 -0.041631 -0.039936
v 0.047356 0.018395 -0.011237
v -0.196588 0.089017 -0.022561
v -0.007028 -0.091750 0.045484
v -0.216131 0.046310 0.042633
v -0.183196 0.017932 0.110206
v -0.169967 0.101042 0.067281
v -0.168244 0.091564 0.084082
v -0.171952 0.111098 0.049885
v -0.145372 0.134123 0.060252
v -0.179758 0.119143 0.052760
v -0.179483 0.126423 0.067433
v -0.158427 0.137268 0.077006
v -0.175003 0.097909 0.082918
v -0.184693 0.065519 0.110537
v -0.229951 0.121629 0.078261
v -0.220760 0.131407 0.102999
v -0.217735 0.157289 0.061718
v -0.210331 0.167174 0.086167
v -0.264781 0.193112 0.118958
v -0.268416 0.180609 0.126791
v -0.258693 0.197253 0.127058
v -0.262336 0.184734 0.134883
v -0.211983 0.170343 0.103212
v -0.199741 0.176769 0.124524
v -0.242479 0.179281 0.148812
v -0.213357 0.187384 0.162154
v -0.227065 0.109316 0.181959
v -0.306821 0.206318 0.188607
v -0.275815 0.146019 0.225420
v -0.260696 0.158309 0.244931
v -0.197884 0.122634 0.198659
v -0.181777 0.092608 0.158559
v -0.161129 0.074039 0.121609
v -0.207339 0.087907 0.148504
v -0.155397 0.115074 0.095252
v -0.144981 0.116366 0.098361
v -0.141757 0.114868 0.094468
v -0.083256 0.106746 0.147677
v 0.061964 -0.031319 0.069585
v 0.048481 -0.042599 0.020142
v 0.071815 -0.000625 0.032036
v 0.054544 -0.021819 0.015077
v 0.097410 -0.027934 -0.012838
v -0.057991 0.180059 -0.132103
v -0.027010 0.167319 -0.175192
v -0.060407 0.179160 -0.128530
v 0.024939 -0.064741 0.010894
v -0.096648 0.177830 0.014910
v -0.175048 0.091835 0.084736
v -0.171146 0.170215 0.083008
v -0.295605 0.218327 0.210732
vn 0.9035 0.3631 0.2278
vn 0.7054 0.6478 -0.2876
vn 0.8600 0.5103 0.0063
vn -0.6706 -0.4320 0.6030
vn 0.2075 0.3670 0.9068
vn 0.0065 0.9642 -0.2651
vn -0.5326 0.7504 0.3914
vn -0.0495 0.4879 0.8715
vn -0.5999 -0.3393 0.7246
vn -0.9901 -0.0794 -0.1161
vn -0.9964 -0.0809 -0.0238
vn -0.8191 -0.0642 -0.5700
vn 0.3827 -0.5869 -0.7135
vn 0.7658 -0.0847 -0.6375
vn 0.8628 0.4369 -0.2544
vn 0.8859 -0.0727 0.4582
vn 0.1820 -0.9829 0.0269
vn 0.2085 0.2534 0.9446
vn 0.7222 0.1144 0.6821
vn -0.5378 -0.2728 -0.7977
vn -0.6815 -0.6487 0.3388
vn 0.4743 0.8798 0.0325
vn 0.6677 0.5664 -0.4830
vn 0.5289 0.8446 -0.0833
vn 0.5618 0.8203 0.1073
vn 0.6066 -0.2189 0.7643
vn 0.6080 -0.4360 0.6635
vn 0.8140 -0.5640 0.1389
vn -0.7662 -0.1174 0.6318
vn -0.6321 -0.7012 -0.3297
vn -0.4929 -0.7475 0.4452
vn -0.8528 -0.3646 0.3739
vn 0.7579 0.2210 -0.6137
vn 0.0141 -0.4627 -0.8864
vn -0.7265 0.1852 -0.6617
vn -0.0174 -0.4220 0.9064
vn 0.5768 -0.8103 0.1036
vn 0.0222 -0.9784 0.2057
vn 0.9247 0.0554 0.3766
vn 0.5067 -0.8250 0.2501
vn 0.1303 -0.8530 0.5054
vn 0.6910 0.6928 0.2062
vn 0.4638 0.6985 0.5449
vn 0.1086 0.6130 0.7826
vn 0.0377 -0.0566 0.9977
vn -0.3468 0.7983 0.4924
vn -0.8817 0.3745 -0.2870
vn -0.6945 -0.6658 0.2726
vn 0.6538 0.0519 0.7549
vn -0.1801 -0.2118 0.9606
vn -0.6946 0.6572 -0.2927
vn -0.9640 -0.2190 0.1506
vn -0.2511 0.0434 0.9670
vn -0.0033 0.8723 0.4889
vn -0.6493 -0.4143 -0.6378
vn -0.3226 0.2714 -0.9068
vn 0.6810 0.6586 -0.3202
vn -0.5460 -0.6040 0.5807
vn -0.7391 0.2493 -0.6258
vn -0.6211 0.6386 -0.4543
vn -0.9470 -0.0329 -0.3196
vn -0.6122 -0.7501 0.2502
vn -0.5825 -0.7945 0.1719
vn -0.5860 0.3214 -0.7439
vn -0.1051 -0.9247 -0.3658
vn -0.1607 0.6843 0.7112
vt 0.500000 0.947266
vt 0.500000 0.947266
vt 0.000000 0.000000
vt 0.500000 0.425781
vt 0.500000 0.947266
vt 0.500000 0.416016
vt 0.500000 0.416016
vt 0.500000 0.416016
vt 0.500000 0.416016
s 1
usemtl Material.001
f 2/1/1 4/1/2 1/1/3
f 20/1/4 53/1/5 63/1/6 24/1/7 52/1/8 22/1/9 21/1/10 19/2/11
s 0
f 9/3/12 61/3/12 59/3/12 60/3/12 4/3/12 2/3/12 5/3/12 6/3/12 8/3/12
s 1
f 6/1/13 5/1/14 3/1/15 58/1/16 7/1/17
f 22/1/9 52/1/8 51/1/18 50/1/19 28/1/20 64/1/21
f 50/4/19 27/4/22 65/4/23 39/4/24 41/4/25 46/4/26 47/4/27 48/4/28
f 9/1/29 8/1/30 6/1/13 7/1/17 10/1/31 12/1/32
f 16/1/33 15/1/34 17/1/35 63/1/6
f 11/1/36 62/1/37 18/1/38 15/1/34 16/1/33 56/2/39 57/1/40 14/1/41
f 3/1/15 59/5/42 61/1/43 13/1/44 58/1/16
f 45/6/45 66/6/46 43/6/47 44/6/48
f 66/6/46 45/6/45 46/7/26 41/8/25
f 56/2/39 16/1/33 63/1/6 53/1/5 54/1/49
f 7/1/17 58/1/16 55/1/50 57/1/40 56/2/39 54/1/49 53/1/5 20/1/4 18/1/38 62/1/37 11/1/36 10/1/31
f 34/4/51 35/4/52 37/4/53 36/4/54
f 30/4/55 35/4/52 34/4/51 32/4/56
f 5/1/14 2/1/1 1/1/3 4/1/2 60/2/57 59/5/42 3/1/15
f 37/4/53 35/4/52 30/4/55 31/4/58
f 40/6/59 43/6/47 66/6/46 41/8/25 39/9/24 38/8/60
f 23/1/61 21/1/10 22/1/9 64/1/21 25/1/61
f 49/6/62 47/6/27 46/7/26 45/6/45 44/6/48 42/6/63
f 26/1/64 27/1/22 24/1/7 63/1/6 17/1/35 19/2/11 21/1/10 23/1/61 25/1/61 64/1/21 28/1/20
f 29/4/65 48/4/28 47/4/27 49/4/62
f 32/4/56 34/4/51 36/4/54 33/4/66 38/4/60 39/4/24 65/4/23
f 28/1/20 50/1/19 48/1/28 29/1/65
f 13/1/44 61/1/43 9/1/29 12/1/32 10/1/31 11/1/36 14/1/41 57/1/40 55/1/50 58/1/16
f 49/4/62 42/4/63 40/4/59 38/4/60 33/4/66 31/4/58 30/4/55 29/4/65
f 31/4/58 33/4/66 36/4/54 37/4/53
f 44/6/48 43/6/47 40/6/59 42/6/63
f 27/1/22 50/1/19 51/1/18 52/1/8 24/1/7
f 29/4/65 30/4/55 32/4/56 65/4/23 27/4/22 26/4/64 28/4/20
f 15/1/34 18/1/38 20/1/4 19/2/11 17/1/35
