# Blender 3.6.1
# www.blender.org
mtllib Piece1.mtl
o Cube.007
v -0.048797 0.141728 0.215147
v -0.045213 0.140561 0.215877
v -0.059329 0.158187 0.191532
v -0.054706 0.137852 0.219579
v -0.047027 0.149713 0.215855
v -0.080965 0.123382 0.230345
v -0.097591 0.065865 0.234067
v -0.084882 0.061691 0.236441
v 0.001512 0.027480 0.207191
v 0.025740 -0.004909 0.021880
v -0.067479 0.025962 0.004418
v 0.012598 0.037415 -0.020315
v 0.065468 0.021135 -0.009534
v 0.031750 0.014742 -0.032308
v 0.061077 0.075772 -0.026059
v 0.017549 0.039508 -0.045433
v -0.031989 0.106739 -0.044000
v 0.036500 0.122734 0.187116
v -0.006137 0.140721 0.201468
v -0.013457 0.051178 -0.051158
v -0.032356 0.056502 -0.036194
v -0.055170 0.054332 0.001114
v -0.042144 0.040732 -0.095032
v 0.043845 0.004324 -0.078585
v -0.133315 -0.148059 -0.054108
v -0.007029 -0.199992 -0.028919
v -0.102406 -0.177482 0.013089
v -0.069036 -0.191252 0.020323
v -0.104127 -0.182807 0.011987
v -0.107243 -0.169508 0.051948
v -0.113154 -0.175836 0.054021
v -0.111220 -0.188205 0.049134
v -0.099155 -0.190936 0.018659
v -0.076463 -0.205812 -0.020419
v -0.073822 -0.200493 0.029095
v -0.067634 -0.198709 0.022841
v -0.056066 -0.218981 -0.007117
v -0.073428 -0.217824 0.051104
v -0.082345 -0.261505 -0.013057
v -0.100525 -0.246107 -0.027713
v -0.108084 -0.297471 -0.017804
v -0.087334 -0.253523 0.037592
v -0.135635 -0.250802 0.066725
v -0.098016 -0.255029 0.050101
v -0.124751 -0.246166 0.079434
v -0.103439 -0.237457 0.095736
v -0.126478 -0.316724 0.079198
v -0.134923 -0.316080 0.072307
v -0.116180 -0.317804 0.068061
v -0.124642 -0.317181 0.061164
v -0.138298 -0.204367 0.069098
v -0.091564 -0.201564 0.060185
v -0.074140 -0.183429 0.058928
v -0.071475 -0.187171 0.038956
v 0.001146 -0.205029 0.050855
v -0.023323 -0.168346 0.118024
v -0.149609 -0.116412 0.092836
v 0.031464 0.021123 0.019694
v -0.154311 -0.248153 0.048819
v -0.175447 -0.282930 0.028650
v -0.152545 -0.300293 0.044301
v -0.156256 -0.376036 0.053394
v -0.117036 -0.370479 -0.005418
v -0.139784 -0.379411 -0.017565
v -0.135860 -0.286183 -0.033055
v -0.178045 -0.386399 0.040213
vn -0.6851 -0.3688 -0.6282
vn -0.7723 -0.0774 0.6305
vn -0.3894 0.8894 0.2393
vn -0.2773 0.6093 -0.7428
vn 0.3449 0.0706 0.9360
vn 0.4624 -0.8379 0.2898
vn 0.2603 -0.8960 0.3599
vn 0.1468 -0.8984 -0.4140
vn -0.6664 -0.5516 -0.5017
vn -0.6780 -0.6267 0.3841
vn 0.3806 -0.8041 -0.4566
vn 0.0652 0.1048 0.9924
vn -0.0577 -0.4915 0.8690
vn 0.7777 -0.6149 0.1307
vn 0.8428 -0.2586 0.4719
vn 0.9777 0.0292 -0.2082
vn 0.9833 -0.0700 0.1683
vn 0.4898 -0.0413 0.8709
vn -0.7777 0.4991 0.3822
vn -0.5189 0.6264 0.5817
vn 0.2674 -0.2434 0.9323
vn 0.8805 -0.4315 -0.1963
vn 0.7621 -0.5596 -0.3255
vn 0.7764 -0.6280 -0.0531
vn 0.6608 -0.7121 -0.2370
vn -0.6925 -0.6051 0.3929
vn -0.2102 -0.3549 0.9109
vn -0.3437 0.1079 -0.9329
vn -0.1407 -0.7030 -0.6971
vn -0.6729 -0.7068 0.2181
vn -0.9699 0.2366 0.0572
vn 0.7345 0.4326 0.5229
vn 0.3209 -0.3840 0.8658
vn 0.8192 0.0977 -0.5651
vn 0.6205 0.5096 -0.5961
vn 0.3697 -0.5905 -0.7174
vn 0.9548 -0.0045 -0.2971
vn 0.1879 0.9802 -0.0619
vn 0.8316 0.5554 0.0081
vn 0.7860 0.3379 -0.5178
vn -0.3124 0.5405 -0.7812
vn -0.5416 0.8405 0.0181
vn 0.8513 -0.5084 -0.1298
vn 0.1868 -0.4816 0.8563
vn -0.7218 -0.6774 0.1415
vn -0.5508 0.7269 0.4101
vn -0.6115 0.7480 0.2580
vn -0.6812 0.6419 -0.3520
vn -0.6698 0.7421 0.0246
vn -0.9935 0.0257 0.1113
vn 0.5974 -0.7127 -0.3676
vn 0.1482 -0.6131 0.7760
vn -0.3995 0.1685 -0.9011
vn 0.1336 0.6574 -0.7416
vn -0.5706 0.2755 -0.7736
vn 0.3544 0.4508 -0.8193
vn 0.7425 -0.5732 -0.3468
vn -0.8887 0.3684 0.2728
vn -0.8720 -0.4895 0.0066
vn -0.1141 0.2318 -0.9661
vn 0.4347 -0.8943 0.1060
vn 0.2813 -0.9571 0.0695
vn -0.8836 -0.4335 -0.1768
vn -0.3403 0.0702 -0.9377
vn -0.6081 -0.3205 -0.7263
vn -0.8507 0.0845 0.5189
vn -0.1524 -0.7035 -0.6941
vt 0.500000 0.947266
vt 0.000000 0.000000
vt 0.500000 0.947266
vt 0.500000 0.425781
vt 0.500000 0.416016
vt 0.500000 0.416016
vt 0.500000 0.416016
vt 0.500000 0.416016
s 1
usemtl Material.003
f 25/1/1 57/1/2 22/1/3 23/1/4
s 0
f 6/2/5 8/2/5 9/2/5 18/2/5 19/2/5 2/2/5 5/2/5 4/2/5
s 1
f 55/3/6 54/1/7 28/1/8 27/1/9 30/1/10 57/1/2 25/1/1 26/1/11
f 46/4/12 47/4/13 49/4/14 38/4/15 37/4/16 35/4/17 52/4/18 32/4/19 51/4/20
f 61/4/21 41/4/22 39/4/23 37/4/16 38/4/15 42/4/24 44/4/25 45/4/26 43/4/27
f 65/5/28 64/6/29 66/6/30 60/7/31
f 58/1/32 56/1/33 55/3/6 26/1/11 24/1/34 16/1/35 14/1/36 12/1/37
f 19/1/38 18/1/39 15/1/40 17/1/41 3/1/42
f 63/6/43 41/6/22 61/6/21 62/6/44
f 24/1/34 26/1/11 25/1/1 23/1/4
f 8/1/45 6/1/46 4/1/47 1/1/48 2/1/49 19/1/38 3/1/42 7/1/50
f 36/1/51 28/1/8 54/1/7 53/1/52 52/1/18 35/1/17
f 4/1/47 5/1/53 2/1/49 1/1/48
f 35/1/17 37/1/16 34/1/54 33/1/55
f 16/1/35 20/1/56 17/1/41 15/1/40 13/1/57 14/1/36
f 51/4/20 59/4/58 43/4/27 45/4/26 48/4/59 47/4/13 46/4/12
f 37/4/16 39/4/23 40/4/60 34/4/54
f 63/6/43 62/6/44 66/6/30 64/6/29
f 40/4/60 65/4/28 60/4/31 59/4/58 51/4/20 32/4/19 33/4/55 34/4/54
f 12/1/37 14/1/36 13/1/57 10/1/61 9/1/62 8/1/45 7/1/50 11/1/63 17/1/41 20/1/56 21/1/64
f 29/1/65 33/1/55 32/1/19 31/1/66 30/1/10 27/1/9
f 30/1/10 31/1/66 32/1/19 52/1/18 53/1/52
f 38/4/15 49/4/14 50/4/67 44/4/25 42/4/24
f 44/4/25 50/4/67 48/4/59 45/4/26
f 47/4/13 48/4/59 50/4/67 49/4/14
f 60/7/31 66/6/30 62/6/44 61/6/21 43/7/27 59/8/58
f 41/6/22 63/6/43 64/6/29 65/5/28 40/6/60 39/6/23
f 36/1/51 35/1/17 33/1/55 29/1/65 27/1/9 28/1/8
f 57/1/2 30/1/10 53/1/52 54/1/7 55/3/6 56/1/33
f 17/1/41 11/1/63 7/1/50 3/1/42
f 22/1/3 57/1/2 56/1/33 58/1/32
f 16/1/35 24/1/34 23/1/4 22/1/3 58/1/32 12/1/37 21/1/64 20/1/56
f 18/1/39 9/1/62 10/1/61 13/1/57 15/1/40
