# Blender 3.6.1
# www.blender.org
mtllib Piece6.mtl
o Cube.002
v 0.051916 0.087104 -0.013293
v 0.039083 0.332152 -0.297865
v 0.078423 0.402086 -0.139643
v 0.067202 0.112798 0.033578
v -0.029012 -0.062230 -0.118498
v 0.089628 -0.223955 -0.103371
v 0.114587 -0.058050 -0.111456
v 0.089228 -0.239765 0.000721
v 0.144160 -0.275946 0.027805
v 0.130884 -0.255763 -0.135816
v -0.029087 -0.266051 -0.116696
v 0.092733 -0.313117 -0.085022
v 0.027808 -0.316469 -0.082540
v 0.098810 -0.356542 -0.047334
v 0.108113 -0.432428 -0.135643
v 0.040518 -0.395448 -0.033646
v 0.068524 -0.531154 0.083996
v 0.133551 -0.516925 0.081585
v 0.014047 -0.294905 0.011978
v 0.020084 -0.240071 -0.003118
v -0.010761 0.009409 0.090985
v -0.046810 -0.075016 -0.023835
v -0.022067 0.098677 0.052066
v -0.070574 0.405036 -0.098808
v -0.112769 0.365683 -0.182996
v -0.101543 0.324536 -0.276595
v -0.014805 0.080077 -0.000267
v 0.097025 0.002020 0.081338
v 0.024627 -0.232381 -0.102566
v 0.042680 -0.442577 -0.132809
vn 0.7416 0.4221 0.5214
vn 0.6738 0.0780 0.7348
vn 0.6981 0.2165 -0.6825
vn 0.4684 0.3683 0.8031
vn 0.7185 0.0192 0.6953
vn 0.5462 0.5174 -0.6587
vn 0.9103 -0.0454 0.4116
vn 0.6095 -0.3431 -0.7147
vn 0.6481 0.0994 -0.7550
vn 0.5925 -0.2211 -0.7747
vn -0.4622 -0.5888 0.6631
vn -0.5548 -0.4007 -0.7291
vn 0.6034 -0.4047 0.6871
vn 0.5714 0.1804 -0.8006
vn -0.8552 -0.0598 -0.5149
vn -0.5586 -0.6997 -0.4455
vn 0.5082 -0.6384 -0.5781
vn -0.8189 0.0269 0.5733
vn -0.6625 -0.4700 -0.5832
vn -0.6994 0.0314 0.7140
vn -0.8389 0.0264 -0.5437
vn -0.6087 -0.2100 0.7651
vn -0.9871 -0.1326 0.0896
vn -0.4837 0.0187 0.8750
vn 0.8863 0.1936 0.4206
vn -0.0932 0.9157 -0.3910
vn -0.6321 0.1373 -0.7626
vn -0.5128 0.4234 -0.7468
vn -0.6222 0.2944 0.7254
vn -0.4811 0.3382 0.8088
vn -0.9681 -0.1728 0.1813
vt 0.500000 0.765625
vt 0.500000 0.765625
vt 0.500000 0.765625
vt 0.500000 0.730469
vt 0.500000 0.730469
vt 0.500000 0.765625
vt 0.000000 0.000000
vt 0.500000 0.736328
s 1
usemtl Material.011
f 4/1/1 28/2/2 7/3/3
f 8/2/4 9/2/5 6/3/6
f 9/2/5 14/2/7 12/3/8
f 9/2/5 12/3/8 10/3/9
f 15/4/10 17/5/11 30/5/12
f 15/4/10 14/5/7 18/5/13
f 1/3/14 27/2/15 26/2/16 2/3/17
f 16/5/18 30/5/12 17/5/11
f 13/5/19 30/5/12 16/5/18
f 20/2/20 11/2/21 19/2/22
f 19/2/22 14/2/7 9/2/5
f 22/2/23 20/2/20 21/2/24
f 3/6/25 4/1/1 1/3/14 2/3/17
s 0
f 25/7/26 24/7/26 3/7/26 2/7/26 26/7/26
s 1
f 5/2/27 27/2/15 1/3/14 7/3/3
f 6/3/6 29/2/28 5/2/27 7/3/3
f 1/3/14 4/1/1 7/3/3
f 8/2/4 6/3/6 7/3/3 28/2/2
f 11/2/21 29/2/28 6/3/6 10/3/9
f 6/3/6 9/2/5 10/3/9
f 13/2/19 11/2/21 10/3/9 12/3/8
f 30/5/12 13/5/19 12/4/8 15/4/10
f 18/5/13 14/5/7 16/5/18 17/5/11
f 12/4/8 14/5/7 15/4/10
f 15/4/10 18/5/13 17/5/11
f 9/2/5 8/2/4 20/2/20 19/2/22
f 19/8/22 13/8/19 16/8/18
f 19/5/22 16/5/18 14/5/7
f 11/2/21 13/2/19 19/2/22
f 20/2/20 29/2/28 11/2/21
f 20/2/20 8/2/4 28/2/2 21/2/24
f 22/2/23 23/2/29 27/2/15 5/2/27
f 23/2/29 22/2/23 21/2/24
f 29/2/28 20/2/20 22/2/23 5/2/27
f 21/2/24 28/2/2 4/1/1 23/2/29
f 24/2/30 23/2/29 4/1/1 3/6/25
f 27/2/15 23/2/29 25/2/31 26/2/16
f 24/2/30 25/2/31 23/2/29
