# Blender 3.6.1
# www.blender.org
mtllib Hair.mtl
o Guest_m_1.012
v 0.126205 0.030938 0.041797
v 0.091900 0.120558 0.011600
v 0.134700 -0.130642 -0.063900
v 0.049899 0.036553 0.079800
v 0.126470 0.015604 0.085401
v 0.158300 -0.000443 -0.080700
v 0.120900 0.117257 -0.101600
v 0.049100 -0.000942 -0.197200
v -0.103500 -0.006542 -0.150500
v 0.046000 0.103158 -0.194600
v 0.037500 -0.148742 -0.140600
v -0.085700 -0.135842 -0.122700
v 0.027400 -0.163842 -0.101500
v -0.006200 0.127758 -0.001100
v -0.091621 0.033882 0.043696
v -0.099200 0.084358 0.047300
v -0.019200 0.105558 0.049300
v -0.161354 0.007489 0.005219
v -0.141519 0.023699 -0.017371
v -0.097300 0.116158 -0.038900
v -0.065800 0.112957 -0.151400
v -0.017123 0.145288 0.032055
v 0.052100 0.087958 0.087600
v 0.023300 0.154358 -0.114100
vn 0.9142 0.3612 0.1840
vn 0.9141 0.3612 0.1840
vn 0.9141 0.3614 0.1838
vn 0.7025 0.5491 0.4527
vn 0.7025 0.5491 0.4528
vn 0.0950 -0.6207 0.7783
vn 0.9494 -0.1355 0.2835
vn -0.2288 -0.9186 -0.3222
vn -0.2288 -0.9190 -0.3211
vn -0.2292 -0.9185 -0.3221
vn 0.6712 -0.2675 -0.6913
vn 0.7458 0.0816 -0.6611
vn -0.2256 -0.2885 -0.9305
vn -0.3206 0.0568 -0.9455
vn -0.3203 0.0564 -0.9456
vn -0.3204 0.0565 -0.9456
vn 0.3660 -0.8958 -0.2523
vn 0.3659 -0.8959 -0.2521
vn -0.1522 -0.9079 -0.3906
vn -0.1521 -0.9079 -0.3906
vn -0.1522 -0.9079 -0.3907
vn -0.3981 -0.6493 0.6481
vn 0.6132 -0.1928 0.7660
vn 0.6132 -0.1929 0.7660
vn -0.9017 -0.2299 0.3661
vn -0.4427 -0.1277 0.8875
vn -0.4425 -0.1279 0.8876
vn -0.4434 -0.1297 0.8869
vn -0.0641 0.1460 0.9872
vn -0.0640 0.1458 0.9872
vn -0.0639 0.1460 0.9872
vn -0.0640 0.1461 0.9872
vn 0.7020 -0.7007 -0.1278
vn 0.7021 -0.7004 -0.1285
vn 0.7024 -0.7002 -0.1283
vn 0.4507 -0.8640 -0.2242
vn -0.8485 0.5255 0.0624
vn -0.8484 0.5257 0.0620
vn -0.8485 0.5256 0.0620
vn -0.9558 -0.1812 -0.2315
vn -0.9558 -0.1815 -0.2313
vn -0.9558 -0.1815 -0.2314
vn -0.9007 0.3166 -0.2975
vn -0.9008 0.3165 -0.2974
vn -0.9007 0.3167 -0.2975
vn -0.9007 0.3167 -0.2974
vn -0.5377 0.7948 0.2813
vn -0.3428 0.9365 -0.0741
vn -0.4493 0.1121 0.8863
vn -0.4491 0.1119 0.8864
vn -0.4491 0.1120 0.8864
vn -0.4492 0.1121 0.8864
vn 0.2797 0.8206 0.4984
vn 0.2888 0.9523 0.0985
vn 0.3687 0.8278 -0.4230
vn 0.3687 0.8278 -0.4229
vn -0.1448 0.8159 -0.5598
vn -0.1114 -0.1444 0.9832
vn -0.5219 -0.7228 -0.4530
vt 0.609800 0.738400
vt 0.608500 0.672600
vt 0.655700 0.670700
vt 0.683000 0.743700
vt 0.609400 0.618500
vt 0.668200 0.631900
vt 0.742690 0.667285
vt 0.814800 0.817300
vt 0.744200 0.808200
vt 0.720000 0.708400
vt 0.757379 0.208623
vt 0.859300 0.252400
vt 0.781700 0.274300
vt 0.700500 0.680600
vt 0.894300 0.319400
vt 0.810700 0.366400
vt 0.634200 0.832200
vt 0.576100 0.799600
vt 0.811000 0.843400
vt 0.742216 0.666409
vt 0.818900 0.629500
vt 0.991400 0.094800
vt 0.969500 0.071200
vt 0.974646 0.136668
vt 0.991700 0.025600
vt 0.974800 0.009400
vt 0.788900 0.618500
vt 0.759363 0.207923
vt 0.549343 0.642448
vt 0.548300 0.740700
vt 0.974063 0.135582
s 0
usemtl wire_115115115.012
f 7/1/1 2/2/2 1/3/1 6/4/3
f 23/5/4 5/6/4 1/3/4 2/2/5
f 4/7/6 13/8/6 3/9/6 1/10/6
f 1/11/7 3/12/7 6/13/7
f 5/14/8 4/7/9 1/10/10
f 11/15/11 8/16/11 6/13/11 3/12/11
f 7/1/12 6/4/12 8/17/12 10/18/12
f 12/12/13 9/13/13 8/16/13 11/15/13
f 8/17/14 9/4/15 21/1/16 10/18/16
f 11/19/17 3/9/18 13/8/17
f 11/19/19 13/8/20 12/9/21
f 15/20/22 19/10/22 12/9/22 13/8/22
f 15/20/23 13/8/24 14/21/23
f 4/7/25 14/21/25 13/8/25
f 15/22/26 16/23/27 18/24/28
f 16/23/29 15/22/30 17/25/31 22/26/32
f 15/20/33 14/21/34 17/27/35
f 15/20/36 18/14/36 19/10/36
f 19/3/37 18/6/37 16/5/38 20/2/39
f 19/28/40 9/13/41 12/12/42
f 21/1/43 9/4/44 19/3/45 20/2/46
f 22/29/47 20/2/47 16/5/47
f 24/30/48 21/1/48 20/2/48 22/29/48
f 23/23/49 22/26/50 17/25/51 4/22/52
f 22/29/53 23/5/53 2/2/53
f 2/2/54 7/1/54 24/30/54 22/29/54
f 7/1/55 10/18/55 24/30/56
f 21/1/57 24/30/57 10/18/57
f 4/22/58 5/31/58 23/23/58
f 17/27/59 14/21/59 4/7/59
