# Blender 3.6.1
# www.blender.org
mtllib Left arm.mtl
o Guest_m_1.005
v 0.149234 0.106861 -0.007700
v 0.151034 0.200561 0.039100
v 0.025175 -0.019496 -0.017560
v 0.152134 0.166361 -0.103900
v -0.012379 -0.044197 -0.031614
v 0.092434 0.239361 -0.034100
v -0.039452 0.007861 0.012293
v 0.137234 -0.134839 0.177300
v 0.021807 0.014599 0.024148
v 0.191245 -0.130219 0.156056
v 0.311941 -0.143374 0.180181
v 0.167529 -0.146068 0.168468
v 0.183170 -0.145784 0.137661
v 0.272369 -0.146748 0.183564
v 0.176234 -0.132039 0.092600
v 0.173201 -0.176336 0.136558
v 0.262310 -0.209165 0.171507
v 0.244908 -0.211048 0.190306
v 0.336706 -0.206874 0.188482
v 0.256067 -0.167736 0.213804
v 0.257599 -0.129977 0.184864
v 0.262687 -0.167531 0.181137
v 0.343635 -0.187716 0.191433
vn 0.9220 0.3783 -0.0829
vn 0.9220 0.3782 -0.0828
vn 0.9220 0.3782 -0.0829
vn 0.5231 -0.4800 0.7043
vn 0.5232 -0.4799 0.7042
vn 0.5231 -0.4801 0.7042
vn 0.5230 -0.4801 0.7043
vn 0.6552 -0.6366 -0.4068
vn -0.6361 0.2287 -0.7369
vn -0.4749 0.3576 0.8041
vn -0.7083 -0.6721 0.2160
vn -0.7083 -0.6720 0.2161
vn -0.7083 -0.6721 0.2158
vn -0.0128 0.7109 0.7032
vn 0.7233 0.6247 -0.2941
vn 0.7231 0.6250 -0.2940
vn 0.7232 0.6249 -0.2940
vn 0.7233 0.6248 -0.2940
vn -0.0213 0.9989 0.0426
vn -0.0215 0.9989 0.0423
vn -0.0215 0.9989 0.0420
vn 0.0209 -0.8270 -0.5619
vn 0.0207 -0.8264 -0.5627
vn 0.0208 -0.8268 -0.5622
vn 0.3433 0.2058 0.9164
vn 0.3429 0.2059 0.9165
vn 0.3426 0.2058 0.9167
vn 0.9471 -0.2369 -0.2164
vn 0.9470 -0.2370 -0.2168
vn 0.9467 -0.2367 -0.2186
vn 0.3607 0.6292 -0.6885
vn 0.3610 0.6292 -0.6883
vn 0.3608 0.6292 -0.6884
vn 0.9273 -0.2943 -0.2312
vn 0.9275 -0.2933 -0.2316
vn 0.9275 -0.2938 -0.2313
vn 0.2886 -0.5186 -0.8049
vn 0.4390 0.0698 -0.8958
vn 0.4391 0.0698 -0.8957
vn -0.2239 -0.9272 -0.3001
vn -0.0739 -0.7305 0.6789
vn -0.0737 -0.7307 0.6787
vn -0.0736 -0.7308 0.6786
vn -0.6429 -0.6098 0.4635
vn -0.6428 -0.6100 0.4634
vn -0.6426 -0.6099 0.4637
vn 0.0435 -0.9973 -0.0594
vn 0.0448 -0.9972 -0.0593
vn 0.0449 -0.9972 -0.0595
vn 0.0387 -0.4847 0.8738
vn 0.0387 -0.4848 0.8738
vn 0.0388 -0.4849 0.8737
vn -0.4918 -0.3145 0.8119
vn -0.4917 -0.3141 0.8122
vn -0.4917 -0.3131 0.8125
vn -0.2455 0.5953 0.7651
vn -0.2451 0.5953 0.7652
vn -0.2447 0.5959 0.7649
vn 0.5923 0.4756 0.6504
vn 0.5922 0.4750 0.6509
vn 0.5928 0.4763 0.6495
vn 0.4589 0.8828 0.1002
vn 0.4592 0.8827 0.1002
vn 0.4602 0.8822 0.1000
vn -0.2352 -0.9706 -0.0510
vn -0.2330 -0.9711 -0.0520
vn -0.2349 -0.9707 -0.0511
vn 0.3224 0.6861 0.6522
vn 0.3225 0.6860 0.6522
vn 0.3234 0.6857 0.6520
vn 0.1395 0.0542 -0.9887
vn 0.1356 0.0526 -0.9894
vn 0.1391 0.0542 -0.9888
vn 0.4535 -0.1075 -0.8847
vn 0.4536 -0.1077 -0.8847
vn 0.2106 0.2196 -0.9526
vn 0.2098 0.2188 -0.9530
vn 0.2103 0.2196 -0.9527
vn 0.0849 -0.0021 0.9964
vn 0.0849 -0.0019 0.9964
vt 0.815200 0.943900
vt 0.772100 0.941300
vt 0.769100 0.988300
vt 0.818000 0.985500
vt 0.069946 0.669442
vt 0.040496 0.669445
vt 0.010400 0.783300
vt 0.046500 0.834000
vt 0.153274 0.672022
vt 0.174700 0.826700
vt 0.221900 0.778300
vt 0.185859 0.665671
vt 0.106202 0.678865
vt 0.106300 0.839200
vt 0.149600 0.504400
vt 0.101800 0.516300
vt 0.062800 0.510000
vt 0.027200 0.533200
vt 0.921290 0.454707
vt 0.904719 0.428549
vt 0.934297 0.506668
vt 0.950967 0.506432
vt 0.072700 0.988500
vt 0.004023 0.992075
vt 0.031500 0.991100
vt 0.256338 0.893497
vt 0.261600 0.926800
vt 0.267200 0.910300
vt 0.270300 0.877200
vt 0.268200 0.856700
vt 0.737420 0.913551
vt 0.715899 0.967206
vt 0.731775 0.975192
vt 0.280400 0.878700
vt 0.290245 0.897868
vt 0.288800 0.859800
vt 0.183600 0.528400
vt 0.723997 0.913513
vt 0.700500 0.906767
vt 0.701308 0.976732
vt 0.984969 0.438276
vt 0.970940 0.447620
vt 0.971643 0.510029
vt 0.966638 0.391644
vt 0.943713 0.441722
vt 0.926754 0.439048
vt 0.937200 0.417900
vt 0.674000 0.817700
vt 0.713058 0.824471
vt 0.683923 0.799676
vt 0.700800 0.791200
vt 0.729581 0.862352
vt 0.717128 0.864176
vt 0.922000 0.440200
s 0
usemtl wire_115115115.014
f 2/1/1 1/2/2 4/3/3 6/4/1
f 9/5/4 3/6/5 1/7/6 2/8/7
f 5/9/8 4/10/8 1/11/8 3/12/8
f 5/9/9 7/13/9 6/14/9 4/10/9
f 6/14/10 7/13/10 9/5/10 2/8/10
f 5/9/11 16/15/12 8/16/13 7/13/11
f 8/16/14 10/17/14 9/5/14 7/13/14
f 9/5/15 10/17/16 15/18/17 3/6/18
f 21/19/19 11/20/20 10/21/21 12/22/20
f 10/23/22 11/24/23 14/25/24
f 10/26/25 8/27/26 12/28/27
f 13/29/28 15/30/29 10/26/30
f 14/31/31 13/32/32 10/33/33
f 13/34/34 16/35/35 15/36/36
f 5/9/37 3/12/37 15/37/37 16/15/37
f 13/32/38 22/38/39 17/39/38 16/40/38
f 17/41/40 18/42/40 16/43/40
f 12/28/41 8/27/42 16/35/43
f 18/42/44 12/22/45 16/43/46
f 19/44/47 18/42/48 17/41/49
f 20/45/50 18/42/51 19/44/52
f 20/45/53 12/22/54 18/42/55
f 20/45/56 21/19/57 12/22/58
f 21/19/59 20/45/60 14/46/61
f 22/47/62 20/45/63 19/44/64
f 22/48/65 23/49/66 20/50/67
f 14/51/68 20/50/69 23/49/70
f 14/31/71 23/52/72 22/38/73
f 14/31/74 22/38/75 13/32/74
f 22/38/76 19/53/77 17/39/78
f 14/54/79 11/20/80 21/19/79
