# Blender 3.6.1
# www.blender.org
mtllib Left leg.mtl
o Guest_m_1.003
v -0.055070 -0.415119 -0.046200
v -0.014082 -0.413833 -0.072121
v -0.040770 -0.326419 -0.033900
v -0.061024 -0.413967 0.089474
v 0.021030 -0.415119 -0.048800
v -0.004117 -0.403429 0.130091
v -0.005570 -0.316719 -0.009400
v 0.023139 -0.407854 0.113893
v 0.030430 -0.316019 -0.033900
v 0.040780 -0.110861 0.002438
v 0.009630 -0.117519 -0.060000
v -0.048870 -0.111719 -0.013900
v 0.011030 -0.074019 0.089100
v 0.108430 -0.088919 0.006700
v 0.137130 0.412081 -0.012600
v 0.012830 -0.103119 -0.145100
v -0.104170 -0.091819 -0.010000
v 0.059630 0.412081 -0.074800
v -0.019970 0.412081 -0.012700
v 0.059830 0.412081 0.049500
vn -0.5281 0.1991 -0.8255
vn -0.5282 0.1996 -0.8253
vn -0.0000 -1.0000 -0.0008
vn -0.9852 0.1656 -0.0446
vn -0.9852 0.1653 -0.0445
vn -0.9852 0.1655 -0.0446
vn -0.4872 0.7435 0.4581
vn 0.0514 -0.9961 0.0723
vn 0.3650 0.7876 0.4965
vn 0.3651 0.7876 0.4964
vn 0.3650 0.7877 0.4964
vn 0.3651 0.7876 0.4965
vn 0.9956 -0.0930 -0.0096
vn 0.9955 -0.0938 -0.0091
vn 0.9956 -0.0937 -0.0091
vn 0.5544 0.0720 -0.8292
vn 0.5540 0.0727 -0.8293
vn 0.5542 0.0723 -0.8292
vn 0.7970 0.0040 -0.6040
vn 0.7971 0.0035 -0.6038
vn 0.7970 0.0037 -0.6040
vn 0.5565 -0.1720 0.8128
vn 0.3469 -0.9308 -0.1149
vn 0.3470 -0.9308 -0.1150
vn -0.3072 -0.0440 0.9506
vn -0.1529 -0.8961 0.4168
vn -0.1531 -0.8961 0.4166
vn -0.1532 -0.8961 0.4165
vn -0.1532 -0.8961 0.4166
vn 0.2497 -0.8578 0.4493
vn 0.2491 -0.8578 0.4497
vn 0.2494 -0.8578 0.4493
vn 0.6372 -0.0040 0.7707
vn 0.7781 -0.0263 -0.6276
vn -0.2998 -0.9323 -0.2023
vn -0.2999 -0.9323 -0.2024
vn -0.6977 0.1363 -0.7033
vn -0.0000 1.0000 -0.0000
vn -0.6393 0.1183 0.7598
vn -0.6641 0.0672 -0.7446
vn -0.6639 0.0671 -0.7448
vn -0.6639 0.0676 -0.7447
vn -0.6640 0.0673 -0.7447
vt 0.346731 0.890101
vt 0.359600 0.915300
vt 0.409400 0.883500
vt 0.252800 0.626800
vt 0.277800 0.611600
vt 0.230900 0.527600
vt 0.231900 0.608700
vt 0.412612 0.980747
vt 0.437000 0.887200
vt 0.458273 0.988512
vt 0.281500 0.514800
vt 0.265200 0.504400
vt 0.479349 0.978640
vt 0.458200 0.870700
vt 0.521700 0.887800
vt 0.333600 0.863900
vt 0.388600 0.829200
vt 0.212200 0.128300
vt 0.263500 0.125200
vt 0.217700 0.012600
vt 0.191000 0.015900
vt 0.132100 0.015100
vt 0.108000 0.007500
vt 0.071908 0.124024
vt 0.204400 0.180800
vt 0.274500 0.179200
vt 0.240500 0.153500
vt 0.197300 0.156100
vt 0.149100 0.133600
vt 0.159700 0.012100
vt 0.086000 0.189700
vt 0.141500 0.178500
vt 0.144200 0.160600
vt 0.079142 0.152475
vt 0.036600 0.169800
vt 0.023100 0.195400
vt 0.016800 0.478400
vt 0.072600 0.480200
vt 0.079200 0.218000
vt 0.196500 0.483900
vt 0.253300 0.490900
vt 0.293200 0.206100
vt 0.213600 0.207800
vt 0.133400 0.481600
vt 0.142300 0.205300
vt 0.942000 0.922100
vt 0.947200 0.880500
vt 0.905500 0.885600
vt 0.901000 0.926600
s 0
usemtl wire_115115115.010
f 2/1/1 1/2/2 3/3/2
f 2/4/3 5/5/3 4/6/3 1/7/3
f 1/2/4 4/8/5 3/3/6
f 7/9/7 3/3/7 4/8/7 6/10/7
f 4/6/8 5/5/8 8/11/8 6/12/8
f 8/13/9 9/14/10 7/9/11 6/10/12
f 8/13/13 5/15/14 9/14/15
f 5/16/16 2/1/17 9/17/18
f 11/18/19 10/19/19 9/20/20 2/21/21
f 7/22/22 9/23/22 10/24/22
f 16/25/23 14/26/23 10/27/23 11/28/24
f 12/29/25 3/30/25 7/22/25 10/24/25
f 13/31/26 17/32/27 12/33/28 10/34/29
f 10/34/30 14/35/31 13/31/32
f 14/36/33 15/37/33 20/38/33 13/39/33
f 18/40/34 15/41/34 14/42/34 16/43/34
f 12/33/35 17/32/35 16/25/36 11/28/35
f 19/44/37 18/40/37 16/43/37 17/45/37
f 18/46/38 19/47/38 20/48/38 15/49/38
f 19/44/39 17/45/39 13/39/39 20/38/39
f 12/29/40 11/18/41 2/21/42 3/30/43
