# Blender 3.6.1
# www.blender.org
mtllib Right arm.mtl
o Guest_m_1.004
v -0.103408 0.254685 -0.007700
v -0.065408 0.340385 0.039100
v -0.046537 0.079409 0.004498
v -0.080908 0.309885 -0.103900
v 0.003992 0.350885 -0.034100
v -0.022438 0.047097 -0.040309
v 0.037229 -0.200717 0.024267
v 0.030851 0.095478 -0.004321
v -0.006998 0.083701 0.037147
v 0.078412 -0.170716 0.049107
v 0.050989 -0.196492 0.072763
v 0.002248 -0.307581 0.025186
v 0.040973 -0.287335 0.073017
v 0.049592 -0.172615 0.095900
v -0.000908 -0.156915 0.049000
v 0.033271 -0.185849 0.050836
v 0.007787 -0.270978 0.088646
v 0.012954 -0.270536 0.066211
v -0.035826 -0.338924 0.071282
v -0.032871 -0.339533 0.050881
v 0.018801 -0.255559 0.100749
v -0.022313 -0.293990 0.101154
vn 0.6759 -0.7323 0.0828
vn 0.6758 -0.7325 0.0828
vn 0.6192 0.1472 -0.7713
vn 0.6191 0.1471 -0.7714
vn 0.6191 0.1470 -0.7714
vn 0.8922 0.2942 0.3426
vn -0.6229 0.0382 0.7814
vn 0.8480 0.2853 0.4466
vn 0.8480 0.2851 0.4469
vn -0.5783 0.0660 0.8131
vn -0.7451 -0.2786 -0.6060
vn -0.7060 -0.1550 -0.6911
vn -0.7063 -0.1551 -0.6907
vn -0.6113 0.2067 0.7639
vn -0.6903 0.0746 -0.7197
vn -0.6901 0.0745 -0.7199
vn -0.6899 0.0741 -0.7201
vn -0.7847 0.4067 -0.4679
vn -0.7850 0.4076 -0.4665
vn -0.7846 0.4072 -0.4676
vn -0.7940 0.3563 0.4925
vn -0.7943 0.3559 0.4924
vn 0.6640 0.6174 -0.4218
vn 0.6605 -0.0203 -0.7505
vn 0.6247 0.7176 -0.3080
vn 0.6241 0.7181 -0.3079
vn 0.6245 0.7177 -0.3079
vn 0.5628 -0.4711 -0.6792
vn 0.5629 -0.4708 -0.6793
vn 0.5629 -0.4710 -0.6792
vn 0.9573 -0.2677 0.1092
vn 0.9572 -0.2678 0.1095
vn 0.9572 -0.2678 0.1093
vn 0.9573 -0.2677 0.1091
vn 0.9573 -0.1913 0.2167
vn 0.9573 -0.1911 0.2168
vn 0.2587 0.0422 -0.9650
vn 0.2587 0.0421 -0.9650
vn 0.2599 0.0428 -0.9647
vn -0.1361 0.1700 0.9760
vn -0.1350 0.1699 0.9762
vn -0.1363 0.1701 0.9760
vn 0.8073 -0.5626 0.1783
vn 0.8094 -0.5604 0.1756
vn 0.8075 -0.5623 0.1782
vn 0.7545 -0.5734 0.3194
vn 0.7541 -0.5733 0.3203
vn 0.7544 -0.5734 0.3195
vn -0.5999 0.7851 0.1543
vn -0.5999 0.7851 0.1540
vn -0.2338 0.3801 -0.8949
vn -0.2338 0.3800 -0.8949
vn -0.2337 0.3799 -0.8950
vn -0.0472 0.6399 -0.7670
vn -0.0464 0.6397 -0.7673
vn -0.0479 0.6398 -0.7670
vn -0.6550 0.6959 -0.2944
vn -0.6529 0.6985 -0.2931
vn -0.6554 0.6956 -0.2941
vn 0.4140 -0.0465 0.9091
vn 0.4141 -0.0443 0.9092
vn 0.4143 -0.0457 0.9090
vn 0.5377 -0.5809 -0.6111
vn 0.5365 -0.5831 -0.6101
vn 0.5368 -0.5820 -0.6108
vn -0.7333 0.0796 -0.6753
vn -0.7334 0.0793 -0.6752
vn -0.7333 0.0797 -0.6752
vt 0.815200 0.943900
vt 0.772100 0.941300
vt 0.769100 0.988300
vt 0.818000 0.985500
vt 0.069707 0.674407
vt 0.041420 0.677428
vt 0.010400 0.783300
vt 0.046500 0.834000
vt 0.153127 0.660796
vt 0.174700 0.826700
vt 0.221900 0.778300
vt 0.185751 0.673789
vt 0.106260 0.681101
vt 0.106300 0.839200
vt 0.183600 0.528400
vt 0.149600 0.504400
vt 0.101800 0.516300
vt 0.062800 0.510000
vt 0.975066 0.436132
vt 0.954895 0.510466
vt 0.978546 0.498733
vt 0.943709 0.441693
vt 0.936657 0.499720
vt 0.243400 0.891500
vt 0.264763 0.917481
vt 0.258300 0.893800
vt 0.270300 0.877200
vt 0.268200 0.856700
vt 0.027200 0.533200
vt 0.280400 0.878700
vt 0.290203 0.897864
vt 0.288800 0.859800
vt 0.737420 0.913550
vt 0.716090 0.965910
vt 0.731863 0.972841
vt 0.723995 0.913582
vt 0.700500 0.906783
vt 0.702563 0.964243
vt 0.937200 0.417900
vt 0.966639 0.391654
vt 0.674000 0.817700
vt 0.713057 0.824473
vt 0.683927 0.799672
vt 0.729580 0.862352
vt 0.717129 0.864175
vt 0.700800 0.791200
vt 0.921272 0.454719
vt 0.926755 0.439039
vt 0.922000 0.440200
vt 0.904708 0.428558
vt 0.072700 0.988500
vt 0.004013 0.992061
vt 0.031500 0.991100
s 0
usemtl wire_115115115.013
f 2/1/1 1/2/2 4/3/1 5/4/2
f 9/5/3 3/6/4 1/7/5 2/8/5
f 6/9/6 4/10/6 1/11/6 3/12/6
f 6/9/7 8/13/7 5/14/7 4/10/7
f 6/9/8 3/12/9 15/15/9 7/16/8
f 6/9/10 7/16/10 10/17/10 8/13/10
f 10/17/11 14/18/11 9/5/11 8/13/11
f 5/14/12 8/13/13 9/5/13 2/8/13
f 12/19/14 10/20/14 7/21/14
f 13/22/15 11/23/16 10/20/17
f 14/24/18 10/25/19 11/26/20
f 13/22/21 10/20/22 12/19/21
f 14/24/23 11/26/23 16/27/23 15/28/23
f 9/5/24 14/18/24 15/29/24 3/6/24
f 16/30/25 7/31/26 15/32/27
f 17/33/28 16/34/29 11/35/30
f 16/34/31 18/36/32 12/37/33 7/38/34
f 17/33/35 18/36/36 16/34/36
f 18/39/37 13/22/38 20/40/39
f 18/41/40 19/42/41 13/43/42
f 17/33/43 19/44/44 18/36/45
f 18/36/46 20/45/47 12/37/48
f 13/22/49 12/19/50 20/40/50
f 17/46/51 13/43/52 19/42/53
f 21/47/54 13/22/55 17/48/56
f 17/49/57 22/50/58 21/47/59
f 11/51/60 22/52/61 17/53/62
f 11/23/63 21/47/64 22/50/65
f 13/22/66 21/47/67 11/23/68
