# Blender 3.6.1
# www.blender.org
mtllib RightFront.mtl
o Cylinder.001
v 0.001740 0.809441 0.113952
v -0.038057 1.260183 0.181989
v 0.001740 0.271064 0.108966
v 0.173104 0.267726 0.010086
v -0.169623 0.267726 0.010086
v 0.001740 -1.209294 0.428737
v 0.172765 -1.228072 0.331798
v -0.169285 -1.228072 0.331798
v 0.001740 -1.379633 0.521221
v 0.188213 -1.379633 0.413625
v -0.184733 -1.379633 0.413625
v -0.184733 -1.379633 0.198430
v 0.001740 -1.379633 0.090832
v -0.169285 -1.265628 0.137918
v 0.001740 -1.284406 0.040978
v -0.169623 0.261048 -0.187675
v 0.001740 0.257709 -0.286556
v -0.253693 1.323895 -0.546250
v 0.107965 1.335250 -0.676039
v -0.307944 1.288557 -0.142328
v -0.307622 1.286830 -0.122602
v 0.338781 1.309855 -0.385781
v 0.223557 1.268095 0.091537
v 0.173104 0.261048 -0.187675
v 0.172765 -1.265628 0.137918
v 0.188213 -1.379633 0.198430
vn -0.6246 -0.0387 0.7800
vn -0.5708 0.0639 0.8186
vn 0.4294 0.0375 0.9023
vn -0.0046 -0.5348 0.8450
vn 0.4277 0.0497 0.9025
vn 0.3517 -0.0781 0.9328
vn -0.9874 -0.1289 -0.0921
vn -0.9959 -0.0740 -0.0528
vn -0.9973 -0.0593 -0.0423
vn -0.3719 -0.3028 -0.8775
vn -0.4300 -0.2487 -0.8679
vn -0.4395 -0.2395 -0.8657
vn -0.0000 0.9962 0.0872
vn 0.5822 -0.2302 -0.7798
vn 0.5871 -0.2332 -0.7752
vn 0.6602 -0.2773 -0.6980
vn 0.9822 -0.0943 0.1627
vn 0.9957 -0.0466 0.0802
vn 0.9945 -0.0524 0.0903
vn 0.4851 0.3103 0.8175
vn 0.4838 0.3202 0.8145
vn 0.4634 0.4390 0.7697
vn -0.4838 0.3202 0.8145
vn -0.4851 0.3103 0.8175
vn -0.4634 0.4390 0.7697
vn -0.0000 -1.0000 -0.0000
vn -0.9982 0.0603 -0.0055
vn -0.9988 0.0490 -0.0045
vn -0.9939 0.1102 -0.0101
vn -0.4872 -0.2914 -0.8232
vn -0.4887 -0.2784 -0.8268
vn -0.4738 -0.3832 -0.7929
vn 0.4887 -0.2784 -0.8268
vn 0.4872 -0.2914 -0.8232
vn 0.4738 -0.3832 -0.7929
vn 0.9988 0.0490 -0.0045
vn 0.9982 0.0603 -0.0055
vn 0.9939 0.1102 -0.0101
vt 0.000000 0.000000
vt 0.665765 0.243263
vt 0.638640 0.174155
vt 0.638801 0.170780
vt 0.773584 0.118666
vt 0.904390 0.134142
vt 0.962003 0.215808
vt 0.846594 0.265469
s 1
usemtl Brown.014
f 2/1/1 21/1/1 5/1/2 3/1/3 1/1/4
f 1/1/4 3/1/3 4/1/5 23/1/6 2/1/6
f 21/1/7 20/1/7 18/1/7 16/1/8 5/1/9
f 18/1/10 19/1/10 17/1/11 16/1/12
s 0
f 18/2/13 20/3/13 21/4/13 2/5/13 23/6/13 22/7/13 19/8/13
s 1
f 24/1/14 17/1/15 19/1/16 22/1/16
f 22/1/17 23/1/17 4/1/18 24/1/19
usemtl HorseShoe.014
f 7/1/20 6/1/21 9/1/22 10/1/22
f 6/1/23 8/1/24 11/1/25 9/1/25
f 13/1/26 26/1/26 10/1/26 9/1/26 11/1/26 12/1/26
f 8/1/27 14/1/28 12/1/29 11/1/29
f 14/1/30 15/1/31 13/1/32 12/1/32
f 15/1/33 25/1/34 26/1/35 13/1/35
f 25/1/36 7/1/37 10/1/38 26/1/38
usemtl Black.014
f 6/1/21 7/1/20 4/1/5 3/1/3
f 5/1/2 8/1/24 6/1/23 3/1/3
f 16/1/8 14/1/28 8/1/27 5/1/9
f 17/1/11 15/1/31 14/1/30 16/1/12
f 24/1/14 25/1/34 15/1/33 17/1/15
f 4/1/18 7/1/37 25/1/36 24/1/19
