# Blender 3.6.1
# www.blender.org
mtllib Lower Body Mulher.mtl
o Guest_f_2.001
v 0.142541 0.450905 0.018689
v 0.058366 0.457569 0.123986
v 0.381500 -0.437473 -0.009774
v 0.211287 -0.436869 0.218457
v 0.269800 -0.437473 -0.227274
v 0.000000 -0.437473 -0.317374
v -0.013251 0.452635 -0.070457
v -0.269800 -0.437473 -0.227274
v -0.381500 -0.437473 -0.009774
v -0.138886 0.454460 0.017716
v -0.269800 -0.437473 0.178826
v -0.084097 0.450115 0.106569
vn 0.8622 0.2461 -0.4428
vn 0.7821 0.1938 0.5923
vn 0.0013 -1.0000 -0.0008
vn -0.0010 -1.0000 0.0012
vn 0.3741 0.2750 -0.8857
vn 0.0006 -1.0000 0.0007
vn -0.3949 0.2686 -0.8786
vn -0.8361 0.2140 0.5051
vn -0.8616 0.2482 -0.4428
vn -0.8615 0.2481 -0.4430
vn -0.8617 0.2480 -0.4426
vn -0.0919 0.0944 0.9913
vn -0.0006 1.0000 -0.0093
vt 0.361436 0.463688
vt 0.348000 0.014400
vt 0.523500 0.023400
vt 0.187376 0.469131
vt 0.151608 0.060603
vt 0.025500 0.500900
vt 0.057100 0.521400
vt 0.024257 0.490119
vt 0.095600 0.504500
vt 0.113500 0.459800
vt 0.716600 0.080800
vt 0.538800 0.518900
vt 0.361584 0.463719
vt 0.280100 0.459700
vt 0.193700 0.043700
vt 0.000000 0.000000
s 0
usemtl wire_115115115.003
f 1/1/1 3/2/1 5/3/1
f 3/2/2 1/1/2 2/4/2 4/5/2
f 11/6/3 9/7/3 4/8/3
f 5/9/4 3/7/4 4/8/4 6/10/4
f 5/3/5 6/11/5 7/12/5 1/1/5
f 4/8/6 9/7/6 8/9/6 6/10/6
f 7/12/7 6/11/7 8/3/7 10/13/7
f 12/14/8 10/13/8 9/2/8 11/15/8
f 10/13/9 8/3/10 9/2/11
f 12/14/12 11/15/12 4/5/12 2/4/12
f 7/16/13 10/16/13 12/16/13 2/16/13 1/16/13
