# Blender 3.6.1
# www.blender.org
mtllib Right Arm.mtl
o Guest_f_2.013
v 0.057327 0.068681 0.081855
v 0.059478 0.101098 0.122700
v 0.035818 0.064495 0.107021
v 0.092187 0.050215 0.099085
v 0.008178 -0.113002 0.118400
v 0.078481 0.096988 0.114069
v -0.000444 0.210643 0.092443
v -0.000668 0.209371 0.040919
v 0.019475 0.323610 0.068286
v 0.001520 0.221780 0.109542
v 0.002278 -0.085202 0.266100
v 0.065278 -0.175202 0.191400
v -0.002909 -0.128383 0.223590
v -0.073722 -0.113502 0.197600
v -0.025502 -0.136782 0.205095
v -0.073050 -0.212040 0.243451
v 0.008836 -0.144020 0.191449
v -0.099969 -0.241927 0.241054
v -0.077245 -0.190425 0.240990
v -0.050434 -0.209231 0.276925
v -0.077222 -0.297674 0.264319
v -0.051035 -0.217541 0.244120
v -0.011458 -0.235300 0.261088
v -0.087253 -0.292079 0.261292
v -0.035600 -0.283073 0.260412
vn -0.8601 -0.3773 0.3433
vn -0.8612 -0.3758 0.3421
vn -0.8612 -0.3760 0.3420
vn -0.8611 -0.3761 0.3421
vn -0.6488 0.6126 -0.4514
vn -0.6488 0.6125 -0.4515
vn -0.7103 0.0657 -0.7008
vn 0.4850 -0.3451 -0.8036
vn 0.4850 -0.3450 -0.8036
vn 0.4849 -0.3450 -0.8036
vn 0.4849 -0.3450 -0.8037
vn 0.5675 0.3966 -0.7216
vn 0.5672 0.3965 -0.7219
vn 0.5671 0.3965 -0.7220
vn 0.7302 0.0721 -0.6794
vn 0.7304 0.0723 -0.6792
vn 0.7303 0.0718 -0.6793
vn 0.7302 0.0719 -0.6794
vn -0.9256 -0.3784 0.0119
vn -0.9261 -0.3770 0.0148
vn -0.9264 -0.3763 0.0133
vn -0.9848 0.1736 -0.0000
vn 0.4118 0.2860 0.8653
vn 0.4125 0.2862 0.8648
vn 0.4130 0.2859 0.8647
vn 0.4130 0.2858 0.8647
vn 0.2597 -0.5173 0.8154
vn 0.2596 -0.5173 0.8154
vn -0.6196 0.6325 0.4648
vn -0.6195 0.6325 0.4649
vn 0.8334 0.1131 0.5409
vn 0.8333 0.1131 0.5411
vn 0.8334 0.1130 0.5410
vn -0.2530 -0.7706 0.5849
vn -0.3828 -0.6119 0.6921
vn -0.3826 -0.6123 0.6919
vn -0.3474 -0.8609 -0.3717
vn -0.3475 -0.8609 -0.3716
vn -0.3473 -0.8609 -0.3717
vn -0.3471 -0.8609 -0.3718
vn -0.3982 -0.2049 -0.8941
vn 0.7170 -0.6182 -0.3220
vn 0.7180 -0.6167 -0.3228
vn 0.7183 -0.6148 -0.3258
vn -0.7621 0.6265 -0.1633
vn -0.7621 0.6266 -0.1632
vn -0.7623 0.6264 -0.1631
vn -0.7623 0.6264 -0.1630
vn -0.1732 0.0774 0.9818
vn -0.1734 0.0774 0.9818
vn -0.1734 0.0788 0.9817
vn -0.3967 0.6554 0.6427
vn -0.3996 0.6547 0.6417
vn -0.3975 0.6548 0.6428
vn -0.8188 -0.0979 0.5656
vn -0.8191 -0.0984 0.5652
vn -0.8192 -0.0987 0.5649
vn 0.2101 -0.1731 0.9622
vn 0.2102 -0.1728 0.9623
vn 0.2101 -0.1729 0.9623
vn 0.2102 -0.1730 0.9622
vn -0.9531 0.2969 -0.0585
vn -0.9529 0.2976 -0.0579
vn -0.9531 0.2969 -0.0584
vn 0.9041 -0.4177 0.0902
vn 0.9039 -0.4180 0.0906
vn -0.8107 0.2601 0.5246
vn -0.8099 0.2619 0.5248
vn -0.8107 0.2602 0.5244
vn 0.5034 0.2509 0.8268
vn 0.5029 0.2508 0.8272
vn 0.5026 0.2508 0.8273
vn -0.0237 -0.2135 -0.9767
vn 0.9445 0.0389 0.3262
vn 0.8507 -0.4263 -0.3074
vn 0.8515 -0.4231 -0.3098
vn 0.8506 -0.4264 -0.3076
vn -0.3877 -0.3074 -0.8690
vn -0.3877 -0.3078 -0.8689
vn -0.0062 -0.2418 -0.9703
vn -0.0067 -0.2423 -0.9702
vn -0.0066 -0.2420 -0.9702
vn -0.1042 -0.5224 -0.8463
vn -0.1044 -0.5224 -0.8463
vn -0.1043 -0.5224 -0.8463
vn -0.4537 -0.8217 -0.3450
vn -0.4538 -0.8218 -0.3446
vn -0.4537 -0.8218 -0.3446
vt 0.143309 0.608697
vt 0.152985 0.611397
vt 0.161731 0.700725
vt 0.138500 0.690500
vt 0.143798 0.717019
vt 0.232500 0.778900
vt 0.204500 0.840900
vt 0.081542 0.722855
vt 0.064700 0.869200
vt 0.023900 0.816600
vt 0.058633 0.714388
vt 0.115044 0.708671
vt 0.051665 0.622133
vt 0.097656 0.558977
vt 0.032653 0.636807
vt 0.000000 0.000000
vt 0.141900 0.850400
vt 0.714600 0.880000
vt 0.715200 0.914300
vt 0.706930 0.937293
vt 0.669000 0.945400
vt 0.856500 0.766700
vt 0.864600 0.733300
vt 0.895100 0.789200
vt 0.865800 0.783500
vt 0.841800 0.831900
vt 0.849400 0.796300
vt 0.814994 0.787274
vt 0.809229 0.848930
vt 0.782368 0.851193
vt 0.670300 0.698500
vt 0.629400 0.701000
vt 0.601693 0.701576
vt 0.704716 0.855622
vt 0.675036 0.778025
vt 0.692071 0.804164
vt 0.723045 0.857541
vt 0.692800 0.789400
vt 0.715431 0.791125
vt 0.697653 0.788257
vt 0.751122 0.758644
vt 0.743269 0.792533
vt 0.732351 0.735386
vt 0.708200 0.766700
vt 0.734300 0.498800
vt 0.743731 0.481259
vt 0.769715 0.508387
vt 0.760900 0.472400
vt 0.801217 0.787519
vt 0.807213 0.734746
vt 0.742722 0.861283
vt 0.782048 0.752259
vt 0.799800 0.733300
vt 0.726000 0.980500
s 0
usemtl wire_115115115.006
f 10/1/1 7/2/2 1/3/3 2/4/4
f 1/3/5 3/5/6 2/4/6
f 3/5/7 1/3/7 5/6/7 14/7/7
f 4/8/8 12/9/9 5/10/10 1/11/11
f 6/12/12 4/8/13 1/11/14
f 1/11/15 8/13/16 9/14/17 6/12/18
f 7/15/19 8/13/20 1/11/21
f 9/16/22 8/16/22 7/16/22 10/16/22
f 9/14/23 10/1/24 2/4/25 6/12/26
f 2/4/27 3/5/28 6/12/27
f 11/17/29 6/12/30 3/5/30 14/7/30
f 4/8/31 6/12/32 11/17/31 12/9/33
f 11/18/34 13/19/34 17/20/34 12/21/34
f 13/22/35 11/23/36 14/24/36 15/25/36
f 14/24/37 5/26/38 17/27/39 15/25/40
f 16/28/41 15/29/41 17/30/41
f 15/31/42 16/32/43 18/33/44
f 15/34/45 18/35/46 19/36/47 13/37/48
f 16/38/49 19/36/50 18/35/51
f 20/39/52 13/37/53 19/36/54
f 19/36/55 16/40/56 20/39/57
f 25/41/58 23/42/59 20/39/60 21/43/61
f 22/44/62 21/43/63 20/39/64
f 22/45/65 20/46/65 24/47/66
f 16/48/67 24/47/68 20/46/69
f 23/42/70 13/37/71 20/39/72
f 16/28/73 22/49/73 24/50/73
f 23/42/74 17/51/74 13/37/74
f 23/42/75 25/41/76 17/51/77
f 25/52/78 22/49/78 17/30/79
f 22/49/80 25/52/81 21/53/82
f 16/28/83 17/30/84 22/49/85
f 17/20/86 5/54/87 12/21/88
