# Blender 3.6.1
# www.blender.org
mtllib Piece1.mtl
o Chest1.005
v 0.836175 0.344537 0.359863
v 1.097723 0.377681 0.373592
v 0.836175 0.344537 -0.359863
v -0.767950 0.344537 0.350004
v 0.836175 0.103777 0.549477
v 0.556658 -0.188944 0.780676
v -0.767950 -0.185669 0.781237
v 0.433273 -0.318158 0.780044
v 0.433273 -0.318158 -0.780045
v -0.767951 -0.311947 0.780280
v -0.767950 -0.311947 -0.780280
v -0.767950 -0.185668 -0.781237
v -0.767950 0.344537 -0.350004
v 0.556659 -0.188944 -0.780676
v 0.836175 0.103777 -0.549477
v 1.097723 0.377681 -0.373592
vn -0.1257 0.9921 -0.0000
vn -0.0641 0.9979 -0.0000
vn -0.0268 0.6236 0.7813
vn -0.1188 0.6143 0.7800
vn -0.0615 0.6207 0.7816
vn -0.0000 1.0000 -0.0000
vn -0.0016 0.6252 0.7805
vn -0.0007 0.3287 0.9444
vn -0.0012 0.4772 0.8788
vn 0.7232 -0.6906 -0.0000
vn 0.0003 -0.0064 1.0000
vn -0.0052 -1.0000 -0.0000
vn -1.0000 -0.0000 -0.0000
vn 0.0003 -0.0064 -1.0000
vn -0.0007 0.3287 -0.9444
vn -0.0012 0.4772 -0.8788
vn -0.0016 0.6252 -0.7805
vn -0.0615 0.6207 -0.7816
vn -0.0268 0.6236 -0.7813
vn -0.1188 0.6143 -0.7800
vt 0.571007 0.510486
vt 0.571007 0.541380
vt 0.566021 0.541380
vt 0.566021 0.510486
vt 0.566021 0.502734
vt 0.409284 0.770334
vt 0.380255 0.770334
vt 0.380255 0.743296
vt 0.409284 0.743296
vt 0.380255 0.728586
vt 0.404226 0.728586
vt 0.409284 0.736666
vt 0.000000 0.000000
vt 0.681518 0.549160
vt 0.704418 0.548778
vt 0.706771 0.554479
vt 0.681518 0.554910
vt 0.641086 0.505646
vt 0.618186 0.505264
vt 0.618186 0.499513
vt 0.643438 0.499944
vt 0.380255 0.785044
vt 0.409284 0.776964
vt 0.404226 0.785044
vt 0.566021 0.549132
s 1
usemtl colors
f 2/1/1 16/2/1 3/3/2 1/4/2
f 5/5/3 2/1/4 1/4/5
f 3/6/2 13/7/6 4/8/6 1/9/2
f 1/9/5 4/8/7 7/10/8 6/11/9 5/12/3
s 0
f 16/13/10 2/13/10 5/13/10 6/13/10 8/13/10 9/13/10 14/13/10 15/13/10
s 1
f 10/14/11 8/15/11 6/16/9 7/17/8
s 0
f 9/13/12 8/13/12 10/13/12 11/13/12
f 4/13/13 13/13/13 12/13/13 11/13/13 10/13/13 7/13/13
s 1
f 9/18/14 11/19/14 12/20/15 14/21/16
f 12/22/15 13/7/17 3/6/18 15/23/19 14/24/16
f 3/3/18 16/2/20 15/25/19
