# Blender 3.6.1
# www.blender.org
mtllib Piece2.mtl
o Chest1.002
v -0.524833 0.332518 -0.343242
v 0.566164 0.332517 -0.349947
v -0.803067 0.367776 -0.374468
v -0.524833 0.332518 0.343241
v -0.524833 -0.032359 -0.646538
v -0.410776 -0.195249 -0.781655
v -0.803066 0.365000 -0.377245
v -0.802868 0.364716 -0.373200
v -0.802868 0.364716 0.373200
v -0.803067 0.364999 0.377245
v -0.803067 0.367776 0.374467
v -0.524833 -0.032359 0.646538
v -0.410777 -0.195249 0.781654
v 0.566164 -0.197665 0.781241
v -0.323905 -0.319316 0.780473
v -0.323903 -0.319316 -0.780473
v 0.566164 -0.323918 0.780282
v 0.566164 -0.323918 -0.780282
v 0.566164 -0.197665 -0.781241
v 0.566164 0.332518 0.349947
v 0.566164 0.332518 -0.059601
vn -0.0000 1.0000 -0.0000
vn 0.0650 0.9979 -0.0000
vn 0.0835 0.6352 -0.7678
vn -0.0015 0.6351 -0.7724
vn -0.0006 0.3329 -0.9430
vn -0.0010 0.4549 -0.8906
vn 0.0267 0.6356 -0.7715
vn 0.1663 0.6309 -0.7578
vn 0.1257 0.9921 -0.0000
vn -0.8192 -0.5736 -0.0000
vn -0.9979 -0.0458 0.0457
vn -0.9982 -0.0578 0.0165
vn -0.9982 -0.0552 0.0229
vn -0.9982 -0.0578 -0.0165
vn -0.9982 -0.0552 -0.0229
vn -0.9979 -0.0457 -0.0458
vn 0.0835 0.6352 0.7678
vn 0.1663 0.6309 0.7578
vn 0.0267 0.6356 0.7715
vn -0.0006 0.3329 0.9430
vn -0.0015 0.6351 0.7724
vn -0.0010 0.4549 0.8906
vn 0.0003 -0.0085 1.0000
vn -0.0052 -1.0000 -0.0000
vn 1.0000 -0.0000 -0.0000
vn 0.0003 -0.0085 -1.0000
vt 0.380087 0.743296
vt 0.380087 0.759118
vt 0.380087 0.770334
vt 0.360344 0.770334
vt 0.360344 0.743296
vt 0.380087 0.785044
vt 0.362408 0.785044
vt 0.360344 0.780509
vt 0.585434 0.541380
vt 0.590738 0.541380
vt 0.590738 0.553278
vt 0.585434 0.541494
vt 0.585434 0.510486
vt 0.590738 0.510486
vt 0.000000 0.000000
vt 0.611809 0.492404
vt 0.611976 0.492392
vt 0.611923 0.492526
vt 0.642764 0.492392
vt 0.642817 0.492526
vt 0.642931 0.492404
vt 0.585434 0.510372
vt 0.590738 0.498588
vt 0.380087 0.728586
vt 0.360344 0.733121
vt 0.362408 0.728586
vt 0.664373 0.549454
vt 0.681341 0.549163
vt 0.681341 0.554913
vt 0.662717 0.555232
vt 0.618008 0.505261
vt 0.601040 0.504969
vt 0.599384 0.499192
vt 0.618008 0.499510
s 1
usemtl colors.001
f 20/1/1 21/2/1 2/3/1 1/4/2 4/5/2
f 1/4/3 2/3/4 19/6/5 6/7/6 5/8/7
f 3/9/8 1/10/3 5/11/7 7/12/8
f 3/9/9 11/13/9 4/14/2 1/10/2
s 0
f 16/15/10 15/15/10 13/15/10 12/15/10 10/15/10 9/15/10 8/15/10 7/15/10 5/15/10 6/15/10
s 1
f 7/16/11 8/17/12 3/18/13
f 8/17/12 9/19/14 11/20/15 3/18/13
f 9/19/14 10/21/16 11/20/15
f 4/14/17 11/13/18 10/22/18 12/23/19
f 14/24/20 20/1/21 4/5/17 12/25/19 13/26/22
f 15/27/23 17/28/23 14/29/20 13/30/22
s 0
f 18/15/24 17/15/24 15/15/24 16/15/24
f 21/15/25 20/15/25 14/15/25 17/15/25 18/15/25 19/15/25 2/15/25
s 1
f 18/31/26 16/32/26 6/33/6 19/34/5
