# Blender 3.6.1
# www.blender.org
mtllib Piece4.mtl
o Box001.002
v -0.047717 0.034041 -1.403980
v 0.043360 0.034041 -1.403980
v -0.047717 -0.046791 -1.403980
v -0.037246 0.034041 1.439255
v -0.047717 -0.065686 1.439255
v 0.030432 0.034041 1.439255
v 0.030435 0.033979 1.439255
v 0.045629 -0.008288 1.439255
v 0.045626 -0.008344 1.439255
v 0.045629 -0.008288 -1.403980
v 0.043360 -0.046791 -1.403980
v 0.043360 -0.065805 1.439255
v -0.047717 -0.065805 1.439255
vn -0.0000 -0.0000 -1.0000
vn -0.0000 1.0000 -0.0000
vn -0.9983 0.0579 0.0020
vn -0.0000 -0.0000 1.0000
vn 0.9794 0.2021 0.0022
vn 0.9989 -0.0472 -0.0002
vn -0.0000 -1.0000 -0.0067
vt 0.086416 0.975793
vt 0.041880 0.980322
vt 0.036779 0.930136
vt 0.059977 0.926515
vt 0.081317 0.925615
vt 0.265535 0.094494
vt 0.275887 0.945421
vt 0.212114 0.944317
vt 0.214171 0.093339
vt 0.165454 0.944324
vt 0.155139 0.093360
vt 0.155209 0.093360
vt 0.000000 0.000000
vt 0.265553 0.094492
vt 0.278741 0.092948
vt 0.287659 0.943862
vt 0.024244 0.076342
vt 0.024276 0.076341
vt 0.056089 0.075004
vt 0.110379 0.944960
vt 0.100914 0.093987
s 1
usemtl Material_#25.003
f 3/1/1 1/2/1 2/3/1 10/4/1 11/5/1
f 6/6/2 2/7/2 1/8/2 4/9/2
f 4/9/3 1/8/3 3/10/3 13/11/3 5/12/3
s 0
f 7/13/4 6/13/4 4/13/4 5/13/4 13/13/4 12/13/4 9/13/4 8/13/4
s 1
f 7/14/5 8/15/5 10/16/5 2/7/5 6/6/5
f 11/5/6 10/4/6 8/17/6 9/18/6 12/19/6
f 13/11/7 3/10/7 11/20/7 12/21/7
