# Blender 3.6.1
# www.blender.org
mtllib Piece3.mtl
o Box001.003
v -0.009761 -0.042765 0.171325
v 0.287276 -0.003709 -0.043325
v -0.263772 -0.003709 -0.043325
v -0.353515 0.004695 -0.043325
v -0.316145 0.022599 -0.043325
v -0.009761 0.004695 0.221189
v -0.009761 0.034087 0.215584
v 0.403792 0.004695 -0.043325
v 0.348521 0.022599 -0.043325
vn -0.0000 -0.9838 -0.1790
vn -0.0000 -0.9296 0.3685
vn -0.0000 -0.0000 -1.0000
vn -0.5450 0.5096 0.6658
vn 0.4525 0.6063 0.6539
vn -0.0000 0.9990 -0.0443
vt 0.921256 0.532409
vt 0.608609 0.532409
vt 0.766831 0.532409
vt 0.454895 0.362490
vt 0.400480 0.362490
vt 0.410737 0.298745
vt 0.454895 0.298745
vt 0.500137 0.298745
vt 0.510647 0.362490
vt 0.000000 0.000000
vt 0.454895 0.412865
vt 0.401633 0.412865
vt 0.509466 0.412865
vt 0.961123 0.106697
vt 0.575951 0.106697
vt 0.766199 0.106697
s 1
usemtl Material_#25.004
f 3/1/1 2/2/1 1/3/1
f 6/4/2 4/5/2 3/6/2 1/7/2 2/8/2 8/9/2
s 0
f 4/10/3 5/10/3 9/10/3 8/10/3 2/10/3 3/10/3
s 1
f 7/11/4 5/12/4 4/5/4 6/4/4
f 8/9/5 9/13/5 7/11/5 6/4/5
f 9/14/6 5/15/6 7/16/6
