# Blender 3.6.1
# www.blender.org
mtllib Piece2.mtl
o Box001.001
v 0.376263 -0.011801 0.208979
v 0.425483 -0.014197 0.258842
v 0.376263 -0.056216 -0.463392
v 0.301047 -0.021691 0.263333
v 0.418461 -0.014197 0.263333
v -0.262836 -0.021691 0.263333
v -0.350462 -0.014202 0.263333
v -0.310328 -0.014389 0.223200
v -0.350462 -0.013008 0.263333
v -0.315210 0.003485 0.263333
v -0.343187 -0.005640 0.256059
v -0.327157 0.003687 0.240029
v -0.327157 0.003037 0.253237
v 0.376263 0.003037 0.253237
v 0.376263 0.038281 -0.463392
v 0.362292 0.003485 0.263333
v 0.425483 -0.014197 -0.512611
vn 0.0567 -0.9945 -0.0879
vn 0.3731 -0.9274 0.0285
vn 0.0046 -0.9993 0.0380
vn -0.0000 -0.0000 1.0000
vn -0.0849 -0.9932 -0.0803
vn -0.7071 -0.0000 -0.7071
vn -0.3789 0.8201 0.4287
vn -0.4697 0.8818 0.0434
vn -0.0000 0.9988 0.0491
vn -0.0000 0.9998 0.0203
vn -0.0000 0.9997 0.0225
vn -0.0000 0.9990 -0.0443
vn 0.5835 0.8119 0.0192
vn 0.2747 0.8883 0.3681
vt 0.511701 0.362490
vt 0.501191 0.298745
vt 0.512648 0.298745
vt 0.512648 0.362490
vt 0.517804 0.803960
vt 0.517659 0.881701
vt 0.385169 0.881701
vt 0.385169 0.803960
vt 0.953726 0.532409
vt 0.564858 0.912749
vt 0.564858 0.532409
vt 0.604924 0.532409
vt 0.924854 0.532409
vt 0.000000 0.000000
vt 0.409709 0.298745
vt 0.399742 0.360679
vt 0.401453 0.298745
vt 0.399531 0.365965
vt 0.400604 0.412865
vt 0.398527 0.412865
vt 0.398527 0.387503
vt 0.523188 0.773332
vt 0.525572 0.743258
vt 0.525572 0.773332
vt 0.972489 0.496298
vt 0.564858 0.113878
vt 0.564858 0.106697
vt 0.972489 0.106697
vt 0.572277 0.106697
vt 0.964888 0.106697
vt 0.385169 0.943136
vt 0.518190 0.943136
vt 0.512648 0.412865
vt 0.510520 0.412865
s 1
usemtl Material_#25.001
f 5/1/1 4/2/1 1/3/1 2/4/1
f 3/5/2 17/6/2 2/7/2 1/8/2
f 8/9/3 3/10/3 1/11/3 4/12/3 6/13/3
s 0
f 5/14/4 16/14/4 10/14/4 9/14/4 7/14/4 6/14/4 4/14/4
s 1
f 6/15/5 7/16/5 8/17/5
s 0
f 7/14/6 9/14/6 11/14/6 12/14/6 15/14/6 17/14/6 3/14/6 8/14/6
s 1
f 9/18/7 10/19/7 13/20/7 11/21/7
f 12/22/8 11/23/8 13/24/8
f 15/25/9 12/26/9 13/27/10 14/28/11
f 13/27/10 10/29/12 16/30/12 14/28/11
f 14/31/13 2/7/13 17/6/13 15/32/13
f 14/33/14 16/34/14 5/1/14 2/4/14
