# Blender 3.6.1
# www.blender.org
mtllib Piece2.mtl
o Island
v -1.152018 -0.002802 0.616839
v -1.073338 0.353631 -0.114330
v -1.103987 0.286256 -0.265991
v -1.183235 0.282865 0.366371
v -1.196773 0.171251 0.502240
v 1.986026 0.339497 1.157953
v 2.159660 0.286590 1.137807
v -1.373884 -0.302458 -0.306196
v -1.437710 -0.302457 0.370896
v 2.639481 -0.302458 0.792589
v 2.142328 0.247117 1.177406
v 1.857517 0.334670 1.238711
v -1.179955 -0.302458 0.792589
v -0.081614 0.289864 1.207337
v -0.870753 -0.002802 1.002410
v -0.826631 0.057314 1.044504
v 2.666034 -0.302458 0.740281
v 2.190645 0.286215 0.928425
v 2.082754 0.375549 0.934521
v -0.474657 0.575340 -0.506774
v -0.791570 -0.302458 -1.431701
v -0.753809 0.256682 -0.945629
vn -0.7951 0.1774 0.5800
vn -0.9126 0.4087 -0.0044
vn -0.3794 0.7996 0.4655
vn -0.0000 -0.5736 0.8192
vn -0.7713 0.3740 0.5150
vn 0.3260 0.6881 0.6483
vn -0.0000 -1.0000 -0.0000
vn 0.4357 0.5736 -0.6936
vn -0.0651 0.9838 0.1672
vn 0.8109 0.5209 0.2669
vn -0.4878 0.8255 -0.2838
vn -0.4875 0.8260 -0.2831
vn -0.8073 0.4107 -0.4238
vn 0.4565 0.8655 0.2061
vt 0.050000 0.500000
vt 0.090514 0.500000
vt 0.095209 0.515433
vt 0.038746 0.544684
vt 0.027034 0.589139
vt -0.014343 0.633098
vt -0.027034 0.589139
vt -0.025000 0.500000
vt 0.025000 0.500000
vt 0.156884 0.606803
vt 0.000000 0.000000
vt 0.063510 0.500000
vt 0.372152 0.631791
vt 0.395483 0.574816
vt 0.400000 0.590372
vt 0.385657 0.633098
vt 0.442671 0.500000
vt 0.975000 0.500000
vt 0.878089 0.500000
vt 0.447153 0.500000
vt 0.229583 0.755201
vt 0.411633 0.659758
vt 0.417431 0.590248
vt 0.935020 0.755201
vt 0.906930 0.579527
vt 0.972966 0.589139
vt 0.985657 0.633098
s 1
usemtl 01_-_Default.001
f 1/1/1 15/2/1 16/3/1 5/4/1
f 1/1/2 5/4/2 4/5/2 2/6/2 3/7/2 8/8/2 9/9/2
f 5/4/3 16/3/3 14/10/3 4/5/3
s 0
f 13/11/4 10/11/4 11/11/4 12/11/4 14/11/4 16/11/4 15/11/4
s 1
f 13/12/5 15/2/5 1/1/5 9/9/5
f 12/13/6 11/14/6 7/15/6 6/16/6
f 10/17/7 13/12/7 9/9/7 8/18/7 21/19/7 17/20/7
s 0
f 21/11/8 22/11/8 20/11/8 19/11/8 18/11/8 17/11/8
s 1
f 20/21/9 2/6/9 4/5/9 14/10/9 12/13/9 6/16/9 19/22/9
f 17/20/10 18/23/10 7/15/10 11/14/10 10/17/10
f 20/24/11 22/25/12 3/26/11 2/27/11
f 22/25/13 21/19/13 8/18/13 3/26/13
f 18/23/14 19/22/14 6/16/14 7/15/14
