# Blender 3.6.1
# www.blender.org
mtllib Piece1.mtl
o Island.001
v -0.020935 -0.004989 0.618297
v -0.023451 -0.304869 0.822637
v 1.681600 -0.302458 -0.096773
v 1.597269 0.117268 -0.294798
v 1.931311 -0.302458 -0.588693
v -1.881295 -0.302458 -0.588694
v -1.571371 -0.002802 -0.378872
v -0.778643 0.289915 -0.173910
v 0.111403 0.295570 0.505542
v 1.143123 0.334320 -0.142817
v 1.435683 0.243534 -0.206386
v 1.521312 0.173680 -0.255298
vn -0.5156 0.4355 0.7379
vn -0.5147 0.4341 0.7394
vn 0.4368 0.3890 0.8111
vn 0.0002 -1.0000 -0.0014
vn 0.8300 0.3655 0.4213
vn -0.0000 0.5736 -0.8192
vn -0.0235 0.9995 0.0224
vt 0.157832 0.606932
vt 0.091155 0.500000
vt 0.064068 0.500000
vt 0.250000 0.500000
vt 0.262742 0.621203
vt 0.400000 0.500000
vt 0.411389 0.540439
vt 0.403690 0.545874
vt 0.395073 0.573404
vt 0.371172 0.631696
vt 0.442148 0.500000
vt 0.000000 0.000000
s 1
usemtl 01_-_Default
f 8/1/1 7/2/1 6/3/1 2/4/1 1/4/2 9/5/1
f 1/4/3 2/4/3 3/6/3 4/7/3 12/8/3 11/9/3 10/10/3 9/5/3
f 3/6/4 2/4/4 6/3/4 5/11/4
f 5/11/5 4/7/5 3/6/5
s 0
f 6/12/6 7/12/6 8/12/6 10/12/6 11/12/6 12/12/6 4/12/6 5/12/6
s 1
f 10/10/7 8/1/7 9/5/7
