# Blender 3.6.1
# www.blender.org
mtllib Back.mtl
o Castle_01
v 1.220110 -2.072509 -4.560153
v 1.220110 2.110325 -4.560153
v 1.220113 -2.072509 3.915981
v 1.220113 2.110326 3.915981
v -1.222079 -2.072509 -4.560151
v -1.222079 2.110325 -4.560152
v -1.222078 -2.072509 3.915982
v -1.222078 2.110326 3.915982
v -0.675352 -2.072509 3.915981
v 0.673387 -2.072509 3.915981
v 0.673387 2.110326 3.915981
v -0.675352 2.110326 3.915981
v 0.673384 -2.072509 -4.560153
v -0.675354 -2.072509 -4.560153
v -0.675354 2.110325 -4.560153
v 0.673384 2.110325 -4.560153
v 1.220110 2.719557 -4.560153
v 1.220113 2.719558 3.915981
v -0.675352 2.719558 3.915981
v -1.222078 2.719558 3.915982
v -1.222079 2.719557 -4.560152
v 0.673384 2.719557 -4.560153
v 0.673387 2.719558 3.915981
v -0.675354 2.719557 -4.560153
v 1.220113 -2.072509 2.198108
v 1.220113 -2.072509 2.808476
v 1.220113 -2.072509 0.785419
v 1.220113 -2.072509 1.395788
v 1.220111 -2.072509 -0.627270
v 1.220111 -2.072509 -0.016901
v 1.220111 -2.072509 -2.039959
v 1.220111 -2.072509 -1.429590
v 1.220110 -2.072509 -3.452647
v 1.220111 -2.072509 -2.842279
v 1.220111 2.110326 -2.842279
v 1.220110 2.110325 -3.452647
v 1.220111 2.110326 -1.429590
v 1.220111 2.110326 -2.039959
v 1.220111 2.110326 -0.016901
v 1.220111 2.110326 -0.627270
v 1.220113 2.110326 1.395788
v 1.220113 2.110326 0.785419
v 1.220113 2.110326 2.808476
v 1.220113 2.110326 2.198108
v -1.222079 -2.072509 -2.842278
v -1.222079 -2.072509 -3.452646
v -1.222079 -2.072509 -1.429589
v -1.222079 -2.072509 -2.039958
v -1.222078 -2.072509 -0.016900
v -1.222078 -2.072509 -0.627269
v -1.222078 -2.072509 1.395788
v -1.222078 -2.072509 0.785420
v -1.222078 -2.072509 2.808477
v -1.222078 -2.072509 2.198109
v -1.222078 2.110326 2.198109
v -1.222078 2.110326 2.808477
v -1.222078 2.110326 0.785420
v -1.222078 2.110326 1.395788
v -1.222078 2.110326 -0.627269
v -1.222078 2.110326 -0.016900
v -1.222079 2.110326 -2.039958
v -1.222079 2.110326 -1.429589
v -1.222079 2.110325 -3.452646
v -1.222079 2.110326 -2.842278
v -0.675352 2.110326 2.808477
v -0.675352 2.110326 2.198109
v -0.675352 2.110326 1.395788
v -0.675352 2.110326 0.785420
v -0.675353 2.110326 -0.016900
v -0.675353 2.110326 -0.627270
v -0.675353 2.110326 -1.429590
v -0.675353 2.110326 -2.039958
v -0.675353 2.110326 -2.842278
v -0.675353 2.110325 -3.452647
v 0.673387 2.110326 2.808477
v 0.673386 2.110326 2.198108
v 0.673386 2.110326 1.395788
v 0.673386 2.110326 0.785419
v 0.673386 2.110326 -0.016901
v 0.673386 2.110326 -0.627270
v 0.673385 2.110326 -1.429590
v 0.673385 2.110326 -2.039959
v 0.673385 2.110326 -2.842279
v 0.673385 2.110325 -3.452647
v 0.673386 -2.072509 2.198108
v 0.673387 -2.072509 2.808477
v 0.673386 -2.072509 0.785419
v 0.673386 -2.072509 1.395788
v 0.673386 -2.072509 -0.627270
v 0.673386 -2.072509 -0.016901
v 0.673385 -2.072509 -2.039959
v 0.673385 -2.072509 -1.429590
v 0.673385 -2.072509 -3.452647
v 0.673385 -2.072509 -2.842279
v -0.675352 -2.072509 2.808477
v -0.675352 -2.072509 2.198109
v -0.675352 -2.072509 1.395788
v -0.675352 -2.072509 0.785420
v -0.675353 -2.072509 -0.016900
v -0.675353 -2.072509 -0.627270
v -0.675353 -2.072509 -1.429590
v -0.675353 -2.072509 -2.039958
v -0.675353 -2.072509 -2.842278
v -0.675353 -2.072509 -3.452647
v 1.220110 2.719557 -3.602548
v 1.220111 2.719558 -2.692379
v 1.220111 2.719558 -2.189859
v 1.220111 2.719558 -1.279690
v 1.220111 2.719558 -0.777171
v 1.220111 2.719558 0.133000
v 1.220113 2.719558 0.635519
v 1.220113 2.719558 1.545689
v 1.220113 2.719558 2.048208
v 1.220113 2.719558 2.958376
v -1.222078 2.719558 2.048208
v -1.222078 2.719558 2.958378
v -1.222078 2.719558 0.635519
v -1.222078 2.719558 1.545689
v -1.222078 2.719558 -0.777170
v -1.222078 2.719558 0.133000
v -1.222079 2.719558 -2.189858
v -1.222079 2.719558 -1.279689
v -1.222079 2.719557 -3.602547
v -1.222079 2.719558 -2.692379
v -0.675352 2.719558 2.048208
v -0.675352 2.719558 2.958376
v -0.675352 2.719558 0.635519
v -0.675352 2.719558 1.545689
v -0.675353 2.719558 -0.777170
v -0.675353 2.719558 0.133000
v -0.675353 2.719558 -2.189858
v -0.675353 2.719558 -1.279689
v -0.675354 2.719557 -3.602547
v -0.675353 2.719558 -2.692379
v 0.673386 2.719558 2.048208
v 0.673387 2.719558 2.958376
v 0.673386 2.719558 0.635519
v 0.673386 2.719558 1.545689
v 0.673386 2.719558 -0.777170
v 0.673386 2.719558 0.133000
v 0.673385 2.719558 -2.189859
v 0.673385 2.719558 -1.279690
v 0.673384 2.719557 -3.602547
v 0.673385 2.719558 -2.692379
v -0.675352 3.121736 2.048208
v -0.675352 3.121736 2.958376
v -0.675352 3.121736 0.635519
v -0.675352 3.121736 1.545689
v -0.675353 3.121736 -0.777170
v -0.675353 3.121736 0.133000
v -0.675353 3.121736 -2.189858
v -0.675353 3.121736 -1.279689
v -0.675354 3.121736 -3.602547
v -0.675353 3.121736 -2.692379
v 1.220113 3.121736 2.048208
v 1.220113 3.121736 2.958376
v 1.220113 3.121736 0.635519
v 1.220113 3.121736 1.545689
v 1.220111 3.121736 -0.777171
v 1.220111 3.121736 0.133000
v 1.220111 3.121736 -2.189859
v 1.220111 3.121736 -1.279690
v 1.220110 3.121736 -3.602548
v 1.220111 3.121736 -2.692379
v -1.222078 3.121736 2.048208
v -1.222078 3.121736 2.958378
v -1.222078 3.121736 0.635519
v -1.222078 3.121736 1.545689
v -1.222078 3.121736 -0.777170
v -1.222078 3.121736 0.133000
v -1.222079 3.121736 -2.189858
v -1.222079 3.121736 -1.279689
v -1.222079 3.121736 -3.602547
v -1.222079 3.121736 -2.692379
v 0.673386 3.121736 2.048208
v 0.673387 3.121736 2.958376
v 0.673386 3.121736 0.635519
v 0.673386 3.121736 1.545689
v 0.673386 3.121736 -0.777170
v 0.673386 3.121736 0.133000
v 0.673385 3.121736 -2.189859
v 0.673385 3.121736 -1.279690
v 0.673384 3.121736 -3.602547
v 0.673385 3.121736 -2.692379
vn 1.0000 -0.0000 -0.0000
vn -0.0000 -0.0000 1.0000
vn -1.0000 -0.0000 -0.0000
vn -0.0000 -0.0000 -1.0000
vn -0.0000 1.0000 -0.0000
vn -0.0000 -1.0000 -0.0000
s 0
usemtl 78909C.003
f 30//1 39//1 42//1 27//1
f 9//2 12//2 8//2 7//2
f 50//3 59//3 62//3 47//3
f 13//4 16//4 2//4 1//4
f 48//3 61//3 64//3 45//3
f 58//3 55//3 115//3 118//3
f 77//3 76//3 135//3 138//3
f 75//3 11//3 23//3 136//3
f 36//1 2//1 17//1 105//1
f 143//5 105//5 17//5 22//5
f 5//4 6//4 15//4 14//4
f 14//4 15//4 16//4 13//4
f 3//2 4//2 11//2 10//2
f 10//2 11//2 12//2 9//2
f 141//5 107//5 106//5 144//5
f 38//1 35//1 106//1 107//1
f 2//4 16//4 22//4 17//4
f 74//5 84//5 16//5 15//5
f 15//4 6//4 21//4 24//4
f 8//2 12//2 19//2 20//2
f 11//2 4//2 18//2 23//2
f 66//5 76//5 77//5 67//5
f 12//1 65//1 126//1 19//1
f 68//5 78//5 79//5 69//5
f 70//5 80//5 81//5 71//5
f 72//5 82//5 83//5 73//5
f 104//6 46//6 5//6 14//6
f 4//1 43//1 114//1 18//1
f 44//1 41//1 112//1 113//1
f 42//1 39//1 110//1 111//1
f 40//1 37//1 108//1 109//1
f 115//5 125//5 128//5 118//5
f 117//5 127//5 130//5 120//5
f 119//5 129//5 132//5 122//5
f 121//5 131//5 134//5 124//5
f 123//5 133//5 24//5 21//5
f 20//5 19//5 126//5 116//5
f 23//5 18//5 114//5 136//5
f 135//5 113//5 112//5 138//5
f 137//5 111//5 110//5 140//5
f 139//5 109//5 108//5 142//5
f 85//6 96//6 97//6 88//6
f 87//6 98//6 99//6 90//6
f 89//6 100//6 101//6 92//6
f 91//6 102//6 103//6 94//6
f 93//6 104//6 14//6 13//6
f 28//1 41//1 44//1 25//1
f 26//1 43//1 4//1 3//1
f 32//1 37//1 40//1 29//1
f 34//1 35//1 38//1 31//1
f 1//1 2//1 36//1 33//1
f 66//1 67//1 128//1 125//1
f 68//1 69//1 130//1 127//1
f 70//1 71//1 132//1 129//1
f 72//1 73//1 134//1 131//1
f 74//1 15//1 24//1 133//1
f 10//6 9//6 95//6 86//6
f 16//3 84//3 143//3 22//3
f 83//3 82//3 141//3 144//3
f 81//3 80//3 139//3 142//3
f 79//3 78//3 137//3 140//3
f 12//5 11//5 75//5 65//5
f 6//3 63//3 123//3 21//3
f 64//3 61//3 121//3 124//3
f 62//3 59//3 119//3 122//3
f 60//3 57//3 117//3 120//3
f 56//3 8//3 20//3 116//3
f 7//3 8//3 56//3 53//3
f 54//3 55//3 58//3 51//3
f 52//3 57//3 60//3 49//3
f 46//3 63//3 6//3 5//3
f 9//6 7//6 53//6 95//6
f 96//6 54//6 51//6 97//6
f 98//6 52//6 49//6 99//6
f 100//6 50//6 47//6 101//6
f 102//6 48//6 45//6 103//6
f 33//6 93//6 13//6 1//6
f 31//6 91//6 94//6 34//6
f 29//6 89//6 92//6 32//6
f 27//6 87//6 90//6 30//6
f 25//6 85//6 88//6 28//6
f 66//1 125//1 126//1 65//1
f 68//1 127//1 128//1 67//1
f 70//1 129//1 130//1 69//1
f 72//1 131//1 132//1 71//1
f 74//1 133//1 134//1 73//1
f 44//1 113//1 114//1 43//1
f 42//1 111//1 112//1 41//1
f 40//1 109//1 110//1 39//1
f 38//1 107//1 108//1 37//1
f 36//1 105//1 106//1 35//1
f 134//1 133//1 153//1 154//1
f 111//4 137//4 177//4 157//4
f 117//3 118//3 168//3 167//3
f 136//2 114//2 156//2 176//2
f 110//1 109//1 159//1 160//1
f 127//4 117//4 167//4 147//4
f 135//3 136//3 176//3 175//3
f 126//1 125//1 145//1 146//1
f 144//2 106//2 164//2 184//2
f 116//2 126//2 146//2 166//2
f 96//6 85//6 86//6 95//6
f 98//6 87//6 88//6 97//6
f 100//6 89//6 90//6 99//6
f 102//6 91//6 92//6 101//6
f 104//6 93//6 94//6 103//6
f 85//6 25//6 26//6 86//6
f 87//6 27//6 28//6 88//6
f 89//6 29//6 30//6 90//6
f 91//6 31//6 32//6 92//6
f 93//6 33//6 34//6 94//6
f 76//5 66//5 65//5 75//5
f 78//5 68//5 67//5 77//5
f 80//5 70//5 69//5 79//5
f 82//5 72//5 71//5 81//5
f 84//5 74//5 73//5 83//5
f 83//3 144//3 143//3 84//3
f 81//3 142//3 141//3 82//3
f 79//3 140//3 139//3 80//3
f 77//3 138//3 137//3 78//3
f 75//3 136//3 135//3 76//3
f 64//3 124//3 123//3 63//3
f 62//3 122//3 121//3 61//3
f 60//3 120//3 119//3 59//3
f 58//3 118//3 117//3 57//3
f 56//3 116//3 115//3 55//3
f 54//6 96//6 95//6 53//6
f 52//6 98//6 97//6 51//6
f 50//6 100//6 99//6 49//6
f 48//6 102//6 101//6 47//6
f 46//6 104//6 103//6 45//6
f 55//3 54//3 53//3 56//3
f 57//3 52//3 51//3 58//3
f 59//3 50//3 49//3 60//3
f 61//3 48//3 47//3 62//3
f 63//3 46//3 45//3 64//3
f 35//1 34//1 33//1 36//1
f 37//1 32//1 31//1 38//1
f 39//1 30//1 29//1 40//1
f 41//1 28//1 27//1 42//1
f 43//1 26//1 25//1 44//1
f 3//6 10//6 86//6 26//6
f 145//5 165//5 166//5 146//5
f 147//5 167//5 168//5 148//5
f 149//5 169//5 170//5 150//5
f 151//5 171//5 172//5 152//5
f 153//5 173//5 174//5 154//5
f 155//5 175//5 176//5 156//5
f 157//5 177//5 178//5 158//5
f 159//5 179//5 180//5 160//5
f 161//5 181//5 182//5 162//5
f 163//5 183//5 184//5 164//5
f 118//2 128//2 148//2 168//2
f 137//3 138//3 178//3 177//3
f 129//4 119//4 169//4 149//4
f 128//1 127//1 147//1 148//1
f 138//2 112//2 158//2 178//2
f 119//3 120//3 170//3 169//3
f 108//1 107//1 161//1 162//1
f 109//4 139//4 179//4 159//4
f 120//2 130//2 150//2 170//2
f 139//3 140//3 180//3 179//3
f 114//1 113//1 155//1 156//1
f 131//4 121//4 171//4 151//4
f 140//2 110//2 160//2 180//2
f 121//3 122//3 172//3 171//3
f 130//1 129//1 149//1 150//1
f 107//4 141//4 181//4 161//4
f 122//2 132//2 152//2 172//2
f 106//1 105//1 163//1 164//1
f 141//3 142//3 182//3 181//3
f 133//4 123//4 173//4 153//4
f 142//2 108//2 162//2 182//2
f 112//1 111//1 157//1 158//1
f 123//3 124//3 174//3 173//3
f 125//4 115//4 165//4 145//4
f 105//4 143//4 183//4 163//4
f 124//2 134//2 154//2 174//2
f 132//1 131//1 151//1 152//1
f 115//3 116//3 166//3 165//3
f 143//3 144//3 184//3 183//3
f 113//4 135//4 175//4 155//4
