# Blender 3.6.1
# www.blender.org
mtllib Left.mtl
o Castle_01.006
v 4.328701 -1.869271 1.451120
v 4.328701 2.313564 1.451120
v 4.328701 -1.869271 0.904396
v 3.221195 -1.869271 1.451120
v 2.610826 -1.869271 1.451120
v 3.221195 2.313564 1.451120
v 3.221195 -1.869271 0.904396
v 2.610826 -1.869271 0.904396
v 3.221195 -1.869271 -0.444344
v 3.221195 -1.869271 -0.991070
v 4.328701 -1.869271 -0.444344
v 2.610826 -1.869271 -0.444344
v 2.610826 -1.869271 -0.991070
v 1.808507 -1.869271 -0.444344
v 1.198138 -1.869271 -0.444344
v 1.808506 -1.869271 -0.991070
v 1.808507 -1.869271 0.904396
v 1.808507 -1.869271 1.451120
v 1.198138 -1.869271 0.904396
v 1.198138 -1.869271 1.451120
v 0.395818 -1.869271 0.904396
v 0.395818 -1.869271 1.451120
v -0.214551 -1.869271 0.904396
v 0.395818 -1.869271 -0.444344
v 0.395818 -1.869271 -0.991070
v -0.214551 -1.869271 -0.444344
v -0.214551 -1.869271 -0.991070
v -1.016871 -1.869271 -0.444344
v -1.016871 -1.869271 0.904396
v -1.627240 -1.869271 -0.444344
v -1.016871 -1.869271 -0.991070
v -1.627240 -1.869271 -0.991070
v -1.016871 2.313564 -0.991070
v -0.214551 2.313564 -0.991070
v -1.627240 2.313564 -0.991070
v -0.866970 2.922796 -0.991070
v -1.777141 2.922796 -0.991070
v -0.364451 2.922796 -0.991070
v -0.866970 2.922796 -0.444344
v -0.866970 3.324974 -0.991070
v -1.777141 3.324974 -0.991070
v -0.866970 3.324974 -0.444344
v -1.777141 3.324974 -0.444344
v -1.777141 2.922796 -0.444344
v -2.279659 2.922796 -0.444344
v -1.627240 2.313564 -0.444344
v -2.429560 2.313564 -0.444344
v -1.016871 2.313564 -0.444344
v -1.627240 2.313564 0.904395
v -1.016871 2.313564 0.904395
v -1.777141 2.922796 0.904395
v -2.429560 2.313564 0.904395
v -3.039928 2.313564 0.904395
v -2.279659 2.922796 0.904395
v -2.279659 3.324974 0.904395
v -3.189828 2.922796 0.904395
v -2.279659 2.922796 1.451120
v -1.777141 2.922796 1.451120
v -3.189828 2.922796 1.451120
v -2.279659 3.324974 1.451120
v -2.429560 2.313564 1.451120
v -1.627240 2.313564 1.451120
v -2.429560 -1.869271 1.451120
v -3.039928 2.313564 1.451120
v -3.039928 -1.869271 1.451120
v -4.147433 2.313564 1.451120
v -4.147433 -1.869271 1.451120
v -4.147433 2.313564 0.904395
v -4.147433 2.922796 1.451120
v -4.147433 2.922796 0.904395
v -4.147433 -1.869271 0.904396
v -4.147433 2.313564 -0.444344
v -4.147433 2.313564 -0.991070
v -4.147433 -1.869271 -0.444344
v -4.147433 2.922796 -0.444344
v -3.039928 2.313564 -0.444344
v -3.189828 2.922796 -0.444344
v -3.189828 3.324974 -0.444344
v -3.189829 2.922796 -0.991070
v -3.039928 2.313564 -0.991070
v -2.279659 2.922796 -0.991070
v -4.147433 2.922796 -0.991070
v -3.189829 3.324974 -0.991070
v -2.279659 3.324974 -0.991070
v -2.279659 3.324974 -0.444344
v -2.429560 2.313564 -0.991070
v -2.429560 -1.869271 -0.991070
v -3.039928 -1.869271 -0.991070
v -2.429560 -1.869271 -0.444344
v -2.429560 -1.869271 0.904396
v -3.039928 -1.869271 -0.444344
v -3.039928 -1.869271 0.904396
v -1.627240 -1.869271 0.904396
v -1.627240 -1.869271 1.451120
v -1.016871 -1.869271 1.451120
v -0.214551 -1.869271 1.451120
v -1.016871 2.313564 1.451120
v -0.214551 2.313564 1.451120
v -0.866970 2.922796 1.451120
v -0.364451 2.922796 1.451120
v -0.866970 2.922796 0.904395
v -0.866970 3.324974 1.451120
v -1.777141 3.324974 1.451120
v -0.866970 3.324974 0.904395
v -1.777141 3.324974 0.904395
v -0.364451 2.922796 0.904395
v -0.214551 2.313564 0.904395
v 0.545718 2.922796 0.904395
v -0.364451 3.324974 0.904395
v -0.364451 3.324974 1.451120
v 0.545718 3.324974 0.904395
v 0.545718 3.324974 1.451120
v 0.545718 2.922796 1.451120
v 0.395818 2.313564 1.451120
v 1.048237 2.922796 1.451120
v 1.198138 2.313564 1.451120
v 1.958407 2.922796 1.451120
v 1.048238 2.922796 0.904395
v 1.048237 3.324974 1.451120
v 1.958407 3.324974 1.451120
v 1.048238 3.324974 0.904395
v 1.958407 3.324974 0.904395
v 1.958407 2.922796 0.904395
v 2.460926 2.922796 0.904395
v 1.808507 2.313564 0.904395
v 1.808507 2.313564 -0.444344
v 1.198138 2.313564 0.904395
v 2.610826 2.313564 0.904395
v 2.610826 2.313564 -0.444344
v 3.221195 2.313564 0.904395
v 4.328701 2.313564 0.904395
v 3.221195 2.313564 -0.444344
v 3.371096 2.922796 0.904395
v 4.328701 2.922796 0.904395
v 3.371096 3.324974 0.904395
v 3.371096 2.922796 1.451120
v 4.328701 2.922796 1.451120
v 2.460926 2.922796 1.451120
v 3.371096 3.324974 1.451120
v 2.460926 3.324974 1.451120
v 2.460926 3.324974 0.904395
v 2.610826 2.313564 1.451120
v 1.808507 2.313564 1.451120
v 4.328701 2.313564 -0.444344
v 3.371096 2.922796 -0.444344
v 2.460926 2.922796 -0.444344
v 3.371096 3.324974 -0.444344
v 4.328701 2.922796 -0.444344
v 3.371096 2.922796 -0.991070
v 4.328701 2.922796 -0.991070
v 3.221195 2.313564 -0.991070
v 2.460926 2.922796 -0.991070
v 3.371096 3.324974 -0.991070
v 2.460926 3.324974 -0.991070
v 2.460926 3.324974 -0.444344
v 2.610826 2.313564 -0.991070
v 1.958407 2.922796 -0.991070
v 1.808507 2.313564 -0.991070
v 1.048238 2.922796 -0.991070
v 1.958407 2.922796 -0.444344
v 1.958407 3.324974 -0.991070
v 1.958407 3.324974 -0.444344
v 1.048238 3.324974 -0.991070
v 1.048238 3.324974 -0.444344
v 1.048238 2.922796 -0.444344
v 1.198138 2.313564 -0.444344
v 0.545718 2.922796 -0.444344
v 0.395818 2.313564 -0.444344
v 0.545718 2.922796 -0.991070
v -0.364451 2.922796 -0.444344
v 0.545718 3.324974 -0.444344
v -0.364451 3.324974 -0.444344
v 0.545718 3.324974 -0.991070
v -0.364451 3.324974 -0.991070
v -0.214551 2.313564 -0.444344
v 0.395818 2.313564 -0.991070
v 1.198138 2.313564 -0.991070
v 1.198138 -1.869271 -0.991070
v 0.395818 2.313564 0.904395
v 4.328701 2.313564 -0.991070
v 4.328701 -1.869271 -0.991070
v -4.147433 -1.869271 -0.991070
v -3.189828 3.324974 1.451120
v -3.189828 3.324974 0.904395
vn -0.0000 -0.0000 1.0000
vn 1.0000 -0.0000 -0.0000
vn -0.0000 -1.0000 -0.0000
vn -0.0000 -0.0000 -1.0000
vn -0.0000 1.0000 -0.0000
vn -1.0000 -0.0000 -0.0000
s 0
usemtl 78909C.002
f 1//1 2//1 6//1 4//1
f 3//2 131//2 2//2 1//2
f 4//3 7//3 3//3 1//3
f 142//1 5//1 4//1 6//1
f 7//3 4//3 5//3 8//3
f 7//3 9//3 11//3 3//3
f 9//3 7//3 8//3 12//3
f 10//3 9//3 12//3 13//3
f 9//3 10//3 181//3 11//3
f 14//3 16//3 13//3 12//3
f 17//3 14//3 12//3 8//3
f 16//3 14//3 15//3 178//3
f 14//3 17//3 19//3 15//3
f 17//3 18//3 20//3 19//3
f 18//3 17//3 8//3 5//3
f 22//3 21//3 19//3 20//3
f 21//3 24//3 15//3 19//3
f 21//3 22//3 96//3 23//3
f 24//3 21//3 23//3 26//3
f 25//3 24//3 26//3 27//3
f 24//3 25//3 178//3 15//3
f 28//3 31//3 27//3 26//3
f 29//3 28//3 26//3 23//3
f 28//3 29//3 93//3 30//3
f 31//3 28//3 30//3 32//3
f 31//4 33//4 34//4 27//4
f 33//4 31//4 32//4 35//4
f 34//4 33//4 36//4 38//4
f 35//4 37//4 36//4 33//4
f 36//4 37//4 41//4 40//4
f 36//5 39//5 170//5 38//5
f 39//2 36//2 40//2 42//2
f 42//5 40//5 41//5 43//5
f 44//1 39//1 42//1 43//1
f 37//6 44//6 43//6 41//6
f 47//1 46//1 44//1 45//1
f 81//5 45//5 44//5 37//5
f 48//1 39//1 44//1 46//1
f 47//5 52//5 49//5 46//5
f 50//5 48//5 46//5 49//5
f 49//4 51//4 101//4 50//4
f 49//4 52//4 54//4 51//4
f 52//5 47//5 76//5 53//5
f 53//4 56//4 54//4 52//4
f 54//5 57//5 58//5 51//5
f 57//2 54//2 55//2 60//2
f 54//4 56//4 184//4 55//4
f 61//1 62//1 58//1 57//1
f 59//1 57//1 60//1 183//1
f 61//1 57//1 59//1 64//1
f 94//1 62//1 61//1 63//1
f 64//1 65//1 63//1 61//1
f 65//1 64//1 66//1 67//1
f 66//1 64//1 59//1 69//1
f 67//6 66//6 68//6 71//6
f 68//6 66//6 69//6 70//6
f 70//5 69//5 59//5 56//5
f 53//4 68//4 70//4 56//4
f 71//6 68//6 72//6 74//6
f 72//5 68//5 53//5 76//5
f 73//6 72//6 75//6 82//6
f 74//6 72//6 73//6 182//6
f 72//1 76//1 77//1 75//1
f 47//1 45//1 77//1 76//1
f 77//1 45//1 85//1 78//1
f 79//6 77//6 78//6 83//6
f 82//5 75//5 77//5 79//5
f 80//4 79//4 81//4 86//4
f 80//4 73//4 82//4 79//4
f 81//4 79//4 83//4 84//4
f 85//5 84//5 83//5 78//5
f 45//2 81//2 84//2 85//2
f 35//4 86//4 81//4 37//4
f 86//4 87//4 88//4 80//4
f 87//4 86//4 35//4 32//4
f 87//3 89//3 91//3 88//3
f 89//3 87//3 32//3 30//3
f 89//3 90//3 92//3 91//3
f 90//3 89//3 30//3 93//3
f 74//3 182//3 88//3 91//3
f 71//3 74//3 91//3 92//3
f 90//3 63//3 65//3 92//3
f 67//3 71//3 92//3 65//3
f 63//3 90//3 93//3 94//3
f 29//3 95//3 94//3 93//3
f 62//1 94//1 95//1 97//1
f 95//3 29//3 23//3 96//3
f 96//1 98//1 97//1 95//1
f 97//1 98//1 100//1 99//1
f 97//1 99//1 58//1 62//1
f 101//5 99//5 100//5 106//5
f 58//1 99//1 102//1 103//1
f 99//2 101//2 104//2 102//2
f 102//5 104//5 105//5 103//5
f 101//4 51//4 105//4 104//4
f 51//6 58//6 103//6 105//6
f 107//4 50//4 101//4 106//4
f 106//6 100//6 110//6 109//6
f 107//4 106//4 108//4 179//4
f 108//4 106//4 109//4 111//4
f 112//5 111//5 109//5 110//5
f 113//2 108//2 111//2 112//2
f 100//1 113//1 112//1 110//1
f 108//5 113//5 115//5 118//5
f 114//1 113//1 100//1 98//1
f 114//1 116//1 115//1 113//1
f 143//1 117//1 115//1 116//1
f 115//1 117//1 120//1 119//1
f 118//6 115//6 119//6 121//6
f 120//5 122//5 121//5 119//5
f 123//4 118//4 121//4 122//4
f 117//2 123//2 122//2 120//2
f 127//4 118//4 123//4 125//4
f 128//4 125//4 123//4 124//4
f 123//5 117//5 138//5 124//5
f 125//5 126//5 166//5 127//5
f 126//5 125//5 128//5 129//5
f 130//5 132//5 129//5 128//5
f 128//4 124//4 133//4 130//4
f 131//4 130//4 133//4 134//4
f 132//5 130//5 131//5 144//5
f 133//5 136//5 137//5 134//5
f 133//4 124//4 141//4 135//4
f 136//2 133//2 135//2 139//2
f 6//1 2//1 137//1 136//1
f 138//1 136//1 139//1 140//1
f 6//1 136//1 138//1 142//1
f 139//5 135//5 141//5 140//5
f 124//6 138//6 140//6 141//6
f 143//1 142//1 138//1 117//1
f 5//1 142//1 143//1 18//1
f 116//1 20//1 18//1 143//1
f 2//2 131//2 134//2 137//2
f 132//1 144//1 148//1 145//1
f 132//1 145//1 146//1 129//1
f 146//1 145//1 147//1 155//1
f 145//2 149//2 153//2 147//2
f 149//5 145//5 148//5 150//5
f 180//4 151//4 149//4 150//4
f 156//4 152//4 149//4 151//4
f 149//4 152//4 154//4 153//4
f 147//5 153//5 154//5 155//5
f 152//6 146//6 155//6 154//6
f 156//4 158//4 157//4 152//4
f 157//5 160//5 146//5 152//5
f 177//4 159//4 157//4 158//4
f 157//4 159//4 163//4 161//4
f 160//2 157//2 161//2 162//2
f 162//5 161//5 163//5 164//5
f 159//6 165//6 164//6 163//6
f 165//1 160//1 162//1 164//1
f 126//1 160//1 165//1 166//1
f 168//1 166//1 165//1 167//1
f 169//5 167//5 165//5 159//5
f 168//1 167//1 170//1 175//1
f 167//2 169//2 173//2 171//2
f 170//1 167//1 171//1 172//1
f 171//5 173//5 174//5 172//5
f 169//4 38//4 174//4 173//4
f 38//6 170//6 172//6 174//6
f 48//1 175//1 170//1 39//1
f 179//5 168//5 175//5 107//5
f 48//5 50//5 107//5 175//5
f 34//4 38//4 169//4 176//4
f 177//4 176//4 169//4 159//4
f 176//4 25//4 27//4 34//4
f 25//4 176//4 177//4 178//4
f 158//4 16//4 178//4 177//4
f 168//5 179//5 127//5 166//5
f 127//4 179//4 108//4 118//4
f 126//1 129//1 146//1 160//1
f 16//4 158//4 156//4 13//4
f 151//4 10//4 13//4 156//4
f 10//4 151//4 180//4 181//4
f 181//2 180//2 144//2 11//2
f 144//2 180//2 150//2 148//2
f 11//2 144//2 131//2 3//2
f 20//1 116//1 114//1 22//1
f 98//1 96//1 22//1 114//1
f 182//4 73//4 80//4 88//4
f 60//5 55//5 184//5 183//5
f 56//6 59//6 183//6 184//6
