# Blender 3.6.1
# www.blender.org
mtllib Tower.mtl
o Castle_01.007
v 0.023760 -1.929017 -1.858469
v 0.023760 0.396843 -1.858470
v -1.223148 -1.929017 -1.341983
v 1.270669 -1.929017 -1.341983
v 0.023760 -2.308464 -2.728964
v -1.838681 -2.308464 -1.957515
v 1.886202 -2.308464 -1.957515
v 0.023760 -3.801335 -2.728964
v 0.023761 -3.801334 -0.095074
v -1.838681 -3.801335 -1.957515
v 1.886202 -3.801335 -1.957515
v 2.657648 -3.801334 -0.095075
v 1.886202 -3.801334 1.767367
v 2.657648 -2.308464 -0.095075
v 1.886202 -2.308463 1.767367
v 1.787156 -1.929016 -0.095075
v 1.270670 -1.929016 1.151835
v 1.787156 0.396843 -0.095075
v 1.270669 0.396843 -1.341983
v 1.270670 0.396843 1.151835
v 1.787156 2.386998 -0.095075
v 1.787156 2.536634 -0.095075
v 1.270669 2.386998 -1.341983
v 1.270670 2.386998 1.151835
v 1.270670 2.536634 1.151835
v 0.601938 1.958110 1.630572
v 0.601938 0.396844 1.630572
v 0.023761 2.485643 1.668321
v 0.601939 1.976198 1.124313
v 0.601939 0.414933 1.124313
v 0.023761 2.503732 1.162062
v -0.554417 1.976198 1.124313
v -0.554417 0.414933 1.124313
v -0.554417 1.958110 1.630572
v -0.554417 0.396844 1.630572
v -1.223148 2.386998 1.151835
v -1.223148 0.396843 1.151835
v -1.739635 2.386998 -0.095075
v -1.223148 2.536634 1.151835
v -1.739635 2.536634 -0.095075
v 0.023761 2.536635 1.668321
v -1.823503 3.314501 1.752188
v -2.588665 3.314500 -0.095075
v 0.023761 3.314501 2.517350
v -1.823503 4.495243 1.752188
v -2.588665 4.495243 -0.095075
v 0.023761 4.495243 2.517350
v -1.823503 5.233146 1.752188
v -1.823503 6.170900 1.752188
v -2.588665 5.233146 -0.095075
v -1.105517 5.233146 1.034202
v 0.023761 5.233146 2.517350
v 1.871025 5.233146 1.752188
v 0.023761 5.233146 1.501964
v 0.023761 6.170900 2.517350
v 1.871025 6.170900 1.752188
v 0.023761 6.170900 1.501964
v 1.153036 6.170900 1.034202
v 1.153036 5.233146 1.034202
v 1.153036 4.495243 1.034202
v 1.620799 5.233146 -0.095075
v 1.620799 4.495243 -0.095075
v 1.153037 5.233146 -1.224351
v 1.620799 6.170900 -0.095076
v 2.636186 5.233146 -0.095075
v 2.636186 4.495243 -0.095075
v 2.636186 6.170900 -0.095076
v 1.871024 5.233145 -1.942336
v 0.023760 5.233145 -2.707498
v 1.871024 4.495242 -1.942336
v 1.871024 6.170899 -1.942337
v 1.153037 6.170900 -1.224351
v 1.871024 3.314500 -1.942336
v 0.023760 4.495242 -2.707498
v 0.023760 3.314500 -2.707498
v -1.823503 4.495242 -1.942337
v -1.823503 3.314500 -1.942337
v -1.823503 5.233145 -1.942337
v -1.105517 5.233146 -1.224351
v -1.823503 6.170899 -1.942338
v 0.023760 6.170899 -2.707499
v -1.105517 6.170900 -1.224351
v 0.023760 6.170899 -1.692112
v 0.023760 5.233145 -1.692112
v 0.023760 4.495242 -1.692112
v 1.153037 4.495243 -1.224351
v -1.105517 4.495243 -1.224351
v 0.023761 4.495243 -0.095075
v 0.023761 4.495243 1.501964
v -1.573278 4.495243 -0.095075
v -1.105517 4.495243 1.034202
v -1.573278 5.233146 -0.095075
v -1.573278 6.170900 -0.095076
v -2.588665 6.170900 -0.095076
v -1.105517 6.170900 1.034202
v -1.223148 2.536634 -1.341983
v 0.023760 2.536634 -1.858470
v -1.223148 2.386998 -1.341983
v 0.023760 2.386998 -1.858470
v -1.223148 0.396843 -1.341983
v -1.739635 0.396843 -0.095075
v -1.739635 -1.929016 -0.095075
v -1.223148 -1.929016 1.151835
v -2.610129 -2.308464 -0.095075
v -1.591760 -2.240619 1.520445
v -2.610129 -3.801334 -0.095075
v -1.591760 -3.869179 1.520445
v 0.023761 -3.801334 2.538815
v 0.023761 -2.308463 2.538815
v 0.023761 -1.929016 1.668321
v 0.023761 0.298200 1.668321
v 1.270669 2.536634 -1.341983
v 2.636186 3.314500 -0.095075
v 1.871025 3.314501 1.752188
v 1.871025 4.495243 1.752188
vn -0.3827 -0.0000 -0.9239
vn 0.3827 -0.0000 -0.9239
vn -0.1633 0.9044 -0.3942
vn 0.1633 0.9044 -0.3942
vn -0.0000 -1.0000 -0.0000
vn 0.9239 -0.0000 -0.3827
vn 0.9239 -0.0000 0.3827
vn 0.3942 0.9044 0.1633
vn 0.3942 0.9044 -0.1633
vn 0.5821 -0.0000 0.8131
vn 0.3870 0.2614 0.8843
vn -1.0000 -0.0000 -0.0000
vn -0.6747 -0.7376 -0.0264
vn -0.0000 -0.0000 1.0000
vn -0.0000 -0.0714 0.9974
vn 1.0000 -0.0000 -0.0000
vn 0.6747 -0.7376 -0.0264
vn -0.5821 -0.0000 0.8131
vn -0.3870 0.2614 0.8843
vn -0.9239 -0.0000 0.3827
vn -0.6505 -0.7101 0.2695
vn -0.2695 -0.7101 0.6505
vn -0.3827 -0.0000 0.9239
vn 0.7071 -0.0000 0.7071
vn -0.0000 1.0000 -0.0000
vn 0.3827 -0.0000 0.9239
vn 0.7071 -0.0000 -0.7071
vn -0.9239 -0.0000 -0.3827
vn -0.7071 -0.0000 -0.7071
vn -0.7071 -0.0000 0.7071
vn -0.0000 -0.0000 -1.0000
vn -0.2695 -0.7101 -0.6505
vn -0.6505 -0.7101 -0.2695
vn -0.3942 0.9044 -0.1633
vn -0.4282 0.8792 0.2088
vn -0.8460 -0.0000 0.5333
vn -0.0000 -0.9991 -0.0420
vn -0.5333 -0.0000 0.8460
vn 0.0420 -0.9991 -0.0000
vn -0.2088 0.8792 0.4282
vn 0.1633 0.9044 0.3942
vn 0.3851 -0.0404 0.9220
vn -0.3851 -0.0404 0.9220
vn -0.0000 0.3574 0.9340
vn 0.2695 -0.7101 -0.6505
vn 0.6505 -0.7101 -0.2695
vn 0.6505 -0.7101 0.2695
vn 0.2695 -0.7101 0.6505
vn -0.0000 0.9994 0.0357
s 0
usemtl 78909C.004
f 1//1 3//1 100//1 2//1
f 4//2 1//2 2//2 19//2
f 3//3 1//3 5//3 6//3
f 1//4 4//4 7//4 5//4
f 6//1 5//1 8//1 10//1
f 5//2 7//2 11//2 8//2
f 10//5 8//5 9//5
f 8//5 11//5 9//5
f 11//5 12//5 9//5
f 7//6 14//6 12//6 11//6
f 12//5 13//5 9//5
f 14//7 15//7 13//7 12//7
f 16//8 17//8 15//8 14//8
f 4//9 16//9 14//9 7//9
f 17//7 16//7 18//7 20//7
f 16//6 4//6 19//6 18//6
f 18//6 19//6 23//6 21//6
f 20//7 18//7 21//7 24//7
f 24//7 21//7 22//7 25//7
f 21//6 23//6 112//6 22//6
f 27//10 20//10 24//10 26//10
f 28//11 26//11 24//11 25//11 41//11
f 27//12 26//12 29//12 30//12
f 26//13 28//13 31//13 29//13
f 32//14 33//14 30//14 29//14
f 32//15 29//15 31//15
f 34//16 35//16 33//16 32//16
f 28//17 34//17 32//17 31//17
f 37//18 35//18 34//18 36//18
f 36//19 34//19 28//19 41//19 39//19
f 101//20 37//20 36//20 38//20
f 38//20 36//20 39//20 40//20
f 40//21 39//21 42//21 43//21
f 39//22 41//22 44//22 42//22
f 43//20 42//20 45//20 46//20
f 42//23 44//23 47//23 45//23
f 46//20 45//20 48//20 50//20
f 45//23 47//23 52//23 48//23
f 50//20 48//20 49//20 94//20
f 48//24 51//24 95//24 49//24
f 48//25 52//25 54//25 51//25
f 47//26 115//26 53//26 52//26
f 52//26 53//26 56//26 55//26
f 54//12 52//12 55//12 57//12
f 55//25 56//25 58//25 57//25
f 59//1 54//1 57//1 58//1
f 53//27 59//27 58//27 56//27
f 60//1 89//1 54//1 59//1
f 62//28 60//28 59//28 61//28
f 53//25 65//25 61//25 59//25
f 86//20 62//20 61//20 63//20
f 63//20 61//20 64//20 72//20
f 61//14 65//14 67//14 64//14
f 115//7 66//7 65//7 53//7
f 66//6 70//6 68//6 65//6
f 65//6 68//6 71//6 67//6
f 68//25 69//25 84//25 63//25
f 70//2 74//2 69//2 68//2
f 68//29 63//29 72//29 71//29
f 67//25 71//25 72//25 64//25
f 113//6 73//6 70//6 66//6
f 73//2 75//2 74//2 70//2
f 75//1 77//1 76//1 74//1
f 74//1 76//1 78//1 69//1
f 77//28 43//28 46//28 76//28
f 76//28 46//28 50//28 78//28
f 78//25 50//25 92//25 79//25
f 69//1 78//1 80//1 81//1
f 78//30 79//30 82//30 80//30
f 81//25 80//25 82//25 83//25
f 79//26 84//26 83//26 82//26
f 84//16 69//16 81//16 83//16
f 87//26 85//26 84//26 79//26
f 85//23 86//23 63//23 84//23
f 86//25 85//25 88//25
f 85//25 87//25 88//25
f 91//25 89//25 88//25
f 89//25 60//25 88//25
f 60//25 62//25 88//25
f 62//25 86//25 88//25
f 87//25 90//25 88//25
f 90//25 91//25 88//25
f 91//6 90//6 92//6 51//6
f 89//2 91//2 51//2 54//2
f 90//7 87//7 79//7 92//7
f 92//31 50//31 94//31 93//31
f 51//6 92//6 93//6 95//6
f 94//25 49//25 95//25 93//25
f 97//32 96//32 77//32 75//32
f 96//33 40//33 43//33 77//33
f 99//1 98//1 96//1 97//1
f 98//28 38//28 40//28 96//28
f 2//1 100//1 98//1 99//1
f 100//28 101//28 38//28 98//28
f 3//28 102//28 101//28 100//28
f 102//20 103//20 37//20 101//20
f 102//34 3//34 6//34 104//34
f 103//35 102//35 104//35 105//35
f 104//28 6//28 10//28 106//28
f 105//36 104//36 106//36 107//36
f 106//5 10//5 9//5
f 107//37 106//37 9//37
f 109//38 105//38 107//38 108//38
f 108//39 107//39 9//39
f 13//5 108//5 9//5
f 15//26 109//26 108//26 13//26
f 110//40 103//40 105//40 109//40
f 17//41 110//41 109//41 15//41
f 110//42 17//42 20//42 27//42 111//42
f 103//43 110//43 111//43 35//43 37//43
f 27//44 35//44 111//44
f 19//2 2//2 99//2 23//2
f 23//2 99//2 97//2 112//2
f 112//45 97//45 75//45 73//45
f 22//46 112//46 73//46 113//46
f 114//7 113//7 66//7 115//7
f 25//47 22//47 113//47 114//47
f 44//26 114//26 115//26 47//26
f 41//48 25//48 114//48 44//48
f 35//49 27//49 30//49 33//49
